<svg width="50" height="36" viewBox="0 0 50 36" fill="none" xmlns="http://www.w3.org/2000/svg">
<path d="M9.32991 23.7512C8.23492 26.5129 6.50493 29.2478 4.18829 31.8795C3.82977 32.2818 3.61286 32.7904 3.57073 33.3277C3.52859 33.8649 3.66355 34.4012 3.95496 34.8544C4.23732 35.305 4.65978 35.6505 5.15747 35.8378C5.65516 36.0251 6.20057 36.0438 6.70993 35.8911C11.6199 34.4561 23.0748 29.3595 23.3814 13.0713C23.4998 6.7814 18.8998 1.37812 12.9099 0.768123C11.2783 0.602866 9.63011 0.780357 8.07108 1.28922C6.51206 1.79808 5.07657 2.62709 3.85663 3.72309C2.64367 4.82031 1.67388 6.15932 1.00966 7.65396C0.345436 9.1486 0.00150536 10.7658 0 12.4013C0 17.9063 3.90829 22.7212 9.32991 23.7512ZM6.09161 6.1964C7.62095 4.80263 9.61738 4.03308 11.6865 4.03976C11.9799 4.03976 12.2765 4.05642 12.5732 4.08642C16.8515 4.51975 20.1348 8.43971 20.0481 13.008C19.8365 24.2779 13.7332 29.3528 8.67991 31.6228C10.2799 29.4595 11.5349 27.2345 12.4299 24.9795C12.6019 24.5463 12.6768 24.0806 12.6495 23.6153C12.6221 23.15 12.4931 22.6963 12.2715 22.2862C12.036 21.8524 11.7084 21.4754 11.3116 21.1818C10.9148 20.8881 10.4586 20.6848 9.9749 20.5863C8.09907 20.186 6.41693 19.1553 5.20851 17.6657C4.00009 16.1762 3.33829 14.3177 3.3333 12.3997C3.3333 10.0414 4.33829 7.77972 6.09161 6.19473V6.1964ZM30.573 34.8544C30.8553 35.3047 31.2775 35.6499 31.7748 35.8372C32.2722 36.0245 32.8172 36.0434 33.3263 35.8911C38.2363 34.4561 49.6895 29.3595 49.9978 13.0713C50.1145 6.77973 45.5145 1.37812 39.5246 0.768123C37.8931 0.601022 36.2448 0.777643 34.6857 1.2866C33.1267 1.79556 31.6916 2.62556 30.473 3.72309C29.2601 4.82031 28.2903 6.15932 27.6261 7.65396C26.9618 9.1486 26.6179 10.7658 26.6164 12.4013C26.6164 17.9063 30.523 22.7212 35.9446 23.7512C34.8496 26.5162 33.1197 29.2512 30.803 31.8795C30.4445 32.2819 30.2279 32.7908 30.1863 33.3282C30.1448 33.8655 30.2806 34.4017 30.573 34.8544ZM39.0446 24.9812C39.2167 24.5481 39.2919 24.0825 39.2648 23.6172C39.2378 23.1519 39.1091 22.6982 38.8879 22.2879C38.6527 21.8535 38.3252 21.476 37.9284 21.1817C37.5316 20.8874 37.0752 20.6836 36.5913 20.5846C34.716 20.1844 33.0343 19.1542 31.8259 17.6654C30.6176 16.1765 29.9555 14.3188 29.9497 12.4013C29.9497 10.0414 30.9547 7.78139 32.708 6.1964C34.2368 4.80288 36.2327 4.03333 38.3013 4.03976C38.5946 4.03976 38.8913 4.05642 39.1879 4.08642C43.4662 4.51975 46.7512 8.43971 46.6645 13.008C46.4529 24.2796 40.3479 29.3528 35.2963 31.6228C36.8946 29.4612 38.1479 27.2362 39.0446 24.9812Z" fill="#79B900"/>
</svg>
