<svg width="20" height="20" viewBox="0 0 20 20" fill="none" xmlns="http://www.w3.org/2000/svg">
<g clip-path="url(#clip0_543_866)">
<path d="M5.88125 14.375H1.875C1.53062 14.375 1.25 14.0944 1.25 13.75V6.25C1.25 5.90562 1.53062 5.625 1.875 5.625H6.69375C7.48625 5.625 7.505 4.375 6.69375 4.375H1.875C0.84125 4.375 0 5.21625 0 6.25V13.75C0 14.7837 0.84125 15.625 1.875 15.625H5.88125C6.67625 15.625 6.6925 14.375 5.88125 14.375ZM18.125 6.875H17.5V6.25C17.5 5.21625 16.6588 4.375 15.625 4.375H14.1187C13.3256 4.375 13.305 5.625 14.1187 5.625H15.625C15.9694 5.625 16.25 5.90562 16.25 6.275V7.5C16.25 7.66576 16.3158 7.82473 16.4331 7.94194C16.5503 8.05915 16.7092 8.125 16.875 8.125H18.125C18.4694 8.125 18.75 8.40562 18.75 8.75V11.25C18.75 11.5944 18.4694 11.875 18.125 11.875H16.875C16.7092 11.875 16.5503 11.9408 16.4331 12.0581C16.3158 12.1753 16.25 12.3342 16.25 12.5V13.75C16.25 14.0944 15.9694 14.375 15.625 14.375H13.3063C12.515 14.375 12.4925 15.625 13.3063 15.625H15.625C16.6588 15.625 17.5 14.7837 17.5 13.75V13.125H18.125C19.1588 13.125 20 12.2838 20 11.25V8.75C20 7.71625 19.1588 6.875 18.125 6.875Z" fill="#79B900"/>
<path d="M14.2946 8.44341C14.2408 8.34809 14.163 8.26853 14.0689 8.21271C13.9748 8.15688 13.8677 8.12673 13.7583 8.12529L11.5458 8.09779L13.1114 0.755916C13.2552 0.0834156 12.3121 -0.289084 11.9614 0.308416L5.71143 10.9334C5.47268 11.3397 5.77205 11.8697 6.24268 11.8753L8.45518 11.9028L6.88893 19.2447C6.7458 19.9153 7.68893 20.2878 8.03893 19.6922L14.2889 9.06716C14.3445 8.97285 14.3743 8.86559 14.3754 8.75613C14.3765 8.64666 14.3482 8.53882 14.2946 8.44341ZM8.91518 15.7372L9.83643 11.4184C9.85428 11.3281 9.85221 11.2349 9.83037 11.1455C9.80852 11.056 9.76742 10.9724 9.70994 10.9005C9.65246 10.8285 9.57998 10.77 9.49755 10.7289C9.41512 10.6879 9.32473 10.6653 9.23268 10.6628L7.33455 10.639L11.0846 4.26404L10.1639 8.58279C10.0827 8.96279 10.3796 9.33279 10.7677 9.33779L12.6658 9.36154L8.91518 15.7372Z" fill="#79B900"/>
</g>
<defs>
<clipPath id="clip0_543_866">
<rect width="20" height="20" fill="white"/>
</clipPath>
</defs>
</svg>
