<svg width="20" height="20" viewBox="0 0 20 20" fill="none" xmlns="http://www.w3.org/2000/svg">
<path d="M17.2235 8.28783C17.1744 8.1757 17.0937 8.08032 16.9913 8.01334C16.8888 7.94637 16.769 7.91071 16.6466 7.91072H11.4116L13.9332 0.841604C13.982 0.704816 13.982 0.555377 13.9332 0.418575C13.8845 0.281772 13.79 0.166009 13.6657 0.0908732C13.5414 0.0157377 13.395 -0.0141552 13.2512 0.00625284C13.1075 0.0266609 12.9751 0.0961167 12.8767 0.202867L2.88995 11.0323C2.80696 11.1223 2.752 11.2346 2.73179 11.3553C2.71158 11.476 2.72699 11.6 2.77615 11.7122C2.82525 11.8243 2.90598 11.9197 3.00844 11.9866C3.1109 12.0536 3.23066 12.0893 3.35307 12.0893H6.75639C7.10436 12.0893 7.38631 11.8072 7.38631 11.4593C7.38631 11.1115 7.10436 10.8294 6.75639 10.8294H4.79079L11.7086 3.32794L9.92463 8.3289C9.85593 8.52182 9.88835 8.73616 10.0064 8.90355C10.1244 9.07094 10.3197 9.17047 10.5246 9.17047H15.2088L8.29205 16.6711L10.0762 11.671C10.1101 11.5759 10.1207 11.4741 10.1071 11.3741C10.0934 11.2741 10.0559 11.1789 9.99777 11.0964C9.93962 11.0139 9.8625 10.9466 9.7729 10.9001C9.68331 10.8536 9.58386 10.8294 9.48293 10.8293H9.47672C9.18066 10.8293 8.93457 11.0336 8.8678 11.3088L6.06693 19.1581C6.01809 19.2949 6.01802 19.4444 6.06673 19.5812C6.11545 19.718 6.20995 19.8338 6.33424 19.909C6.45853 19.9841 6.60498 20.014 6.74878 19.9936C6.89258 19.9732 7.0249 19.9037 7.12334 19.7969L17.1096 8.96747C17.1926 8.87753 17.2476 8.76534 17.2678 8.64463C17.2881 8.52392 17.2727 8.39993 17.2235 8.28783Z" fill="#79B900"/>
</svg>
