<svg width="50" height="51" viewBox="0 0 50 51" fill="none" xmlns="http://www.w3.org/2000/svg">
<path d="M45.0764 42.7704L44.3134 37.9459L44.7884 30.5414V27.1809C44.7884 27.1669 44.7849 27.1539 44.7844 27.1404V24.3319C44.7844 23.8699 44.4144 23.4919 43.9524 23.4919L43.9484 23.4924C43.8383 23.4925 43.7293 23.5143 43.6276 23.5566C43.5259 23.5989 43.4335 23.6608 43.3558 23.7388C43.2781 23.8169 43.2166 23.9095 43.1747 24.0113C43.1329 24.1132 43.1115 24.2223 43.1119 24.3324L43.1034 26.3414H36.3059V23.1409C36.907 23.0107 37.4607 22.7178 37.9067 22.2943C38.3527 21.8708 38.6738 21.333 38.8349 20.7394L39.9319 16.6994C39.9902 16.4845 39.9608 16.2552 39.85 16.0619C39.7393 15.8687 39.5564 15.7273 39.3414 15.6689C38.9299 15.5549 38.4989 15.7804 38.3434 16.1754C38.3319 16.2034 38.3189 16.2299 38.3109 16.2599L37.2139 20.2984C37.1496 20.5329 37.0351 20.7507 36.8783 20.9366C36.7215 21.1224 36.5262 21.272 36.3059 21.3749C36.0834 21.4821 35.8399 21.5383 35.5929 21.5394H35.5694L35.4669 21.5379L34.6254 21.5249L32.4909 21.4914L31.6509 21.4784L30.8104 21.4654L28.3939 21.4279C28.2837 21.4226 28.1756 21.3955 28.0758 21.3482C27.9761 21.3009 27.8867 21.2343 27.8128 21.1524C27.7388 21.0704 27.6819 20.9746 27.6451 20.8705C27.6083 20.7665 27.5924 20.6562 27.5984 20.5459C27.6224 20.0829 28.0194 19.7179 28.4814 19.7499C28.5164 19.7514 28.5519 19.7514 28.5874 19.7484L30.8104 19.5819L31.6509 19.5189L32.4909 19.4559L34.6254 19.2959L34.8804 19.2769C34.994 19.268 35.1046 19.236 35.2054 19.183C35.3062 19.1299 35.3952 19.0569 35.4669 18.9684C35.5368 18.8838 35.5895 18.7863 35.6219 18.6814L36.3059 16.4149L36.5864 15.4874L36.6059 15.4229C36.6219 15.3694 36.6319 15.3159 36.6374 15.2624C36.793 15.0506 36.9962 14.8783 37.2306 14.7594C37.465 14.6405 37.7241 14.5784 37.9869 14.5779H41.4319C42.3569 14.5779 43.1044 15.3334 43.1044 16.2584V17.6109C43.1044 18.0804 43.4804 18.4484 43.9489 18.4509L43.9529 18.4514C44.4149 18.4514 44.7929 18.0819 44.7929 17.6109L44.7844 17.6024V16.2584C44.7843 15.463 44.5019 14.6934 43.9874 14.0868C43.4728 13.4802 42.7597 13.0759 41.9749 12.9459C42.4849 12.1121 42.6795 11.1233 42.5234 10.1584C42.6934 10.0044 42.8024 9.78444 42.8024 9.53694V8.69694C42.8016 7.80579 42.4473 6.95137 41.8171 6.32123C41.187 5.69109 40.3326 5.33673 39.4414 5.33594H38.6009C37.0199 5.33594 36.1754 6.34694 36.0879 8.34194L35.7324 8.69744H35.2399C34.7754 8.69744 34.3999 9.07294 34.3999 9.53744C34.3999 10.0019 34.7754 10.3779 35.2399 10.3779H35.8749C35.8608 10.5173 35.8534 10.6573 35.8529 10.7974C35.8529 11.7059 36.1399 12.5404 36.6164 13.1929C36.0413 13.4501 35.5502 13.864 35.1993 14.3872C34.8483 14.9104 34.6517 15.5218 34.6319 16.1514L34.1809 17.6449L32.4919 17.7719V6.17644C32.4919 5.95366 32.4034 5.74 32.2459 5.58247C32.0884 5.42494 31.8747 5.33644 31.6519 5.33644H18.2064C17.9836 5.33644 17.77 5.42494 17.6125 5.58247C17.4549 5.74 17.3664 5.95366 17.3664 6.17644V17.7609L15.8254 17.6449L15.3734 16.1484C15.3525 15.5195 15.1554 14.9092 14.8047 14.3868C14.4539 13.8643 13.9636 13.4509 13.3894 13.1934C13.8664 12.5404 14.1529 11.7059 14.1529 10.7974C14.1529 10.6554 14.1444 10.5159 14.1309 10.3779H14.7659C15.2304 10.3779 15.6059 10.0019 15.6059 9.53744C15.6059 9.07294 15.2304 8.69744 14.7659 8.69744H14.2734L13.9179 8.34194C13.8304 6.34694 12.9859 5.33594 11.4049 5.33594H10.5644C9.67327 5.33673 8.81885 5.69109 8.18871 6.32123C7.55858 6.95137 7.20422 7.80579 7.20342 8.69694V9.53694C7.20342 9.78494 7.31242 10.0049 7.48242 10.1584C7.45092 10.3664 7.43092 10.5784 7.43092 10.7964C7.43092 11.5949 7.65342 12.3354 8.03092 12.9464C6.43742 13.2089 5.21692 14.5919 5.21692 16.2589V27.1824L5.21842 30.5969L5.69192 37.9474L4.92192 42.8244C4.80142 44.0969 5.61842 45.2854 6.82192 45.5874C7.18795 45.681 7.5699 45.6941 7.94148 45.6259C8.31307 45.5578 8.66547 45.4099 8.97442 45.1924C9.57742 44.7659 9.96242 44.1044 10.0264 43.4134L10.8459 37.3784C10.8504 37.3404 10.8529 37.3029 10.8529 37.2649V33.1474L12.1069 38.0469L12.2089 42.6544C12.0842 43.2626 12.1934 43.8954 12.5149 44.4264C12.6897 44.7178 12.921 44.9713 13.1953 45.1718C13.4696 45.3723 13.7813 45.5158 14.1119 45.5939C14.3174 45.6439 14.5244 45.6684 14.7289 45.6684C15.8779 45.6674 16.9289 44.9034 17.2219 43.7639C17.2375 43.7023 17.2463 43.639 17.2479 43.5754C17.3689 38.5389 17.2514 37.1744 17.1329 36.7149L15.3779 27.1084V23.2069L17.3654 23.1759V28.0234C17.3654 28.1338 17.387 28.2431 17.4292 28.345C17.4714 28.447 17.5333 28.5397 17.6113 28.6177C17.6893 28.6958 17.7819 28.7577 17.8839 28.7999C17.9858 28.8422 18.0951 28.8639 18.2054 28.8639H31.6499C31.7603 28.8639 31.8695 28.8422 31.9715 28.7999C32.0734 28.7577 32.1661 28.6958 32.2441 28.6177C32.3221 28.5397 32.3839 28.447 32.4261 28.345C32.4683 28.2431 32.49 28.1338 32.4899 28.0234V23.1739L34.6244 23.2074V27.1134L32.8704 36.7154C32.7519 37.1749 32.6349 38.5394 32.7554 43.5759C32.7569 43.6389 32.7659 43.7034 32.7819 43.7644C33.0749 44.9049 34.1259 45.6689 35.2749 45.6689C35.4784 45.6689 35.6854 45.6444 35.8919 45.5944C36.2225 45.5163 36.5341 45.3727 36.8083 45.1722C37.0824 44.9716 37.3137 44.7183 37.4884 44.4269C37.8099 43.8959 37.9192 43.2631 37.7944 42.6549L37.8959 38.0474L39.1499 33.1479V37.2654C39.1499 37.3029 39.1524 37.3409 39.1574 37.3789L39.9729 43.3789C40.0076 43.7396 40.12 44.0885 40.3022 44.4016C40.4845 44.7147 40.7324 44.9847 41.0289 45.1929C41.3379 45.4104 41.6903 45.5583 42.0619 45.6264C42.4335 45.6946 42.8154 45.6815 43.1814 45.5879C44.3864 45.2839 45.2034 44.0954 45.0764 42.7704ZM42.0009 43.8189C41.7959 43.6739 41.6699 43.4609 41.6439 43.1854L40.8314 37.2064V31.3814C40.8314 31.2711 40.8097 31.1618 40.7674 31.0599C40.7252 30.9579 40.6633 30.8653 40.5852 30.7873C40.5072 30.7093 40.4145 30.6474 40.3125 30.6052C40.2106 30.5631 40.1013 30.5414 39.9909 30.5414H38.7349C38.5484 30.5414 38.3671 30.6034 38.2197 30.7177C38.0724 30.8321 37.9672 30.9922 37.9209 31.1729L36.2454 37.7219C36.2299 37.784 36.221 37.8475 36.2189 37.9114L36.1124 42.7194C36.1109 42.7964 36.1199 42.8729 36.1389 42.9474C36.1653 43.0503 36.1709 43.1574 36.1555 43.2625C36.14 43.3676 36.1038 43.4685 36.0489 43.5594C35.9284 43.7594 35.7319 43.9019 35.4954 43.9594C35.0409 44.0699 34.5829 43.8304 34.4339 43.4204C34.3724 40.7504 34.3704 37.7624 34.4734 37.2094C34.4934 37.1594 34.5079 37.1079 34.5174 37.0549L36.1684 28.0209H43.1099L43.1109 30.4869L42.6299 37.9314C42.6259 37.9939 42.6289 38.0549 42.6389 38.1169L43.4104 42.9804C43.4529 43.4349 43.1789 43.8544 42.7739 43.9559C42.4989 44.0254 42.2239 43.9774 42.0009 43.8189ZM30.8104 23.8199H19.0469V23.1474L21.6964 23.1059C22.0274 23.0899 22.3519 23.0084 22.6511 22.866C22.9503 22.7236 23.2183 22.5232 23.4394 22.2764C23.8909 21.7764 24.1194 21.1299 24.0849 20.4579C24.0134 19.0899 22.8804 18.0219 21.4954 18.0684L19.0469 17.8844V17.0974H30.8104V17.8954L28.5094 18.0679C27.1194 18.0269 25.9914 19.0894 25.9199 20.4584C25.9023 20.7891 25.9502 21.1199 26.061 21.4319C26.1718 21.744 26.3432 22.031 26.5654 22.2764C27.0169 22.7769 27.6354 23.0714 28.3379 23.1064L30.8099 23.1454L30.8104 23.8199ZM30.8104 27.1809H28.2899V25.5004H30.8104V27.1809ZM19.0469 25.5004H21.5674V27.1809H19.0469V25.5004ZM23.2479 25.5004H26.6094V27.1809H23.2479V25.5004ZM15.5719 43.4199C15.4224 43.8304 14.9624 44.0674 14.5099 43.9589C14.3957 43.9325 14.288 43.8835 14.193 43.8148C14.098 43.7461 14.0178 43.6591 13.9569 43.5589C13.9019 43.4681 13.8655 43.3672 13.85 43.2621C13.8344 43.157 13.84 43.0498 13.8664 42.9469C13.8854 42.8724 13.8944 42.7959 13.8929 42.7189L13.7864 37.9109C13.7848 37.847 13.7759 37.7834 13.7599 37.7214L12.0844 31.1724C12.0382 30.9917 11.9331 30.8315 11.7857 30.7171C11.6383 30.6028 11.457 30.5408 11.2704 30.5409H10.0144C9.90407 30.5409 9.79479 30.5626 9.69282 30.6047C9.59084 30.6469 9.49818 30.7088 9.42013 30.7868C9.34208 30.8648 9.28016 30.9574 9.23791 31.0594C9.19567 31.1613 9.17392 31.2706 9.17392 31.3809V37.2064L8.35742 43.2204C8.34612 43.3399 8.30863 43.4555 8.24762 43.5588C8.18661 43.6622 8.10357 43.7508 8.00442 43.8184C7.89364 43.8969 7.7669 43.9498 7.63326 43.9735C7.49962 43.9972 7.3624 43.991 7.23142 43.9554C6.82592 43.8539 6.55242 43.4344 6.58842 43.0324L7.36642 38.1164C7.37642 38.0549 7.37942 37.9934 7.37542 37.9309L6.89792 30.5409V28.0209H13.8384L15.4894 37.0549C15.4984 37.1074 15.5129 37.1589 15.5329 37.2094C15.6349 37.7624 15.6334 40.7499 15.5719 43.4199ZM14.4369 21.5384H14.4134C14.1589 21.5384 13.9174 21.4769 13.6989 21.3739C13.4789 21.271 13.2839 21.1215 13.1275 20.9357C12.971 20.7499 12.8569 20.5323 12.7929 20.2979L11.6949 16.2584C11.6869 16.2289 11.6739 16.2024 11.6629 16.1744C11.5876 15.9709 11.4363 15.8046 11.2408 15.7104C11.0453 15.6163 10.8208 15.6017 10.6148 15.6697C10.4087 15.7378 10.2371 15.8832 10.1361 16.0753C10.0352 16.2673 10.0127 16.4911 10.0734 16.6994L11.1714 20.7384C11.3321 21.3319 11.6528 21.8698 12.0986 22.2932C12.5444 22.7167 13.098 23.0094 13.6989 23.1394V26.3404H6.89742V16.2574C6.89795 15.8121 7.07504 15.3851 7.38986 15.0701C7.70468 14.7551 8.13156 14.5777 8.57692 14.5769L12.0184 14.5759C12.5714 14.5759 13.0614 14.8454 13.3674 15.2589C13.3724 15.3129 13.3829 15.3679 13.3994 15.4219L13.4189 15.4864L13.6984 16.4114L14.3834 18.6809C14.4159 18.7884 14.4704 18.8839 14.5384 18.9679C14.6814 19.1429 14.8904 19.2584 15.1244 19.2764L15.3789 19.2954L17.3664 19.4444L18.2064 19.5074L19.0469 19.5704L21.4174 19.7479C21.4529 19.7514 21.4879 19.7514 21.5234 19.7494C21.9804 19.7184 22.3824 20.0829 22.4064 20.5454C22.4189 20.7694 22.3424 20.9849 22.1924 21.1519C22.051 21.3114 21.8534 21.41 21.6409 21.4269L19.0469 21.4674L18.2064 21.4804L17.3664 21.4934L15.3789 21.5244L14.5384 21.5374L14.4369 21.5384ZM10.7919 7.01444H11.4049C11.6149 7.01444 11.8394 7.01694 12.0039 7.27244C12.1274 7.46494 12.2169 7.79994 12.2394 8.38994C12.2429 8.48494 12.2449 8.58594 12.2449 8.69494H8.88392C8.88419 8.24932 9.06133 7.82204 9.37642 7.50694C9.69152 7.19184 10.1188 7.0147 10.5644 7.01444H10.7919ZM12.4724 10.7949C12.4724 11.9524 11.7179 12.8944 10.7919 12.8944C9.86542 12.8944 9.11142 11.9524 9.11142 10.7949C9.11142 10.6514 9.12292 10.5109 9.14492 10.3754H12.4384C12.4604 10.5109 12.4724 10.6514 12.4724 10.7949ZM19.0469 7.01444H21.5674V8.69494H19.0469V7.01444ZM23.2479 15.4169V13.7364H26.6094V15.4169H23.2479ZM19.0469 15.4169V13.7364H21.5674V15.4169H19.0469ZM23.2479 10.3754H26.6094V12.0559H23.2479V10.3754ZM30.8104 12.0559H28.2899V10.3754H30.8104V12.0559ZM28.2899 13.7364H30.8104V15.4169H28.2899V13.7364ZM30.8104 8.69494H28.2899V7.01444H30.8104V8.69494ZM26.6094 8.69494H23.2479V7.01444H26.6094V8.69494ZM21.5674 10.3754V12.0559H19.0469V10.3754H21.5674ZM38.6004 7.01444H39.4409C39.8865 7.01497 40.3136 7.19219 40.6286 7.50723C40.9437 7.82227 41.1209 8.2494 41.1214 8.69494H37.7599C37.7599 8.58644 37.7619 8.48494 37.7654 8.39044C37.7879 7.80044 37.8774 7.46544 38.0009 7.27294C38.1654 7.01694 38.3904 7.01444 38.6004 7.01444ZM37.5664 10.3754H40.8599C40.8819 10.5109 40.8939 10.6514 40.8939 10.7949C40.8939 11.9524 40.1394 12.8944 39.2129 12.8944C38.2869 12.8944 37.5324 11.9524 37.5324 10.7949C37.5329 10.6514 37.5444 10.5109 37.5664 10.3754ZM44.7839 20.9799C44.7839 21.4419 44.4139 21.8114 43.9519 21.8114L43.9479 21.8109C43.4794 21.8089 43.1034 21.4409 43.1034 20.9799C43.1034 20.5104 43.4794 20.1334 43.9479 20.1309L43.9519 20.1304C44.4144 20.1304 44.7839 20.5089 44.7839 20.9799Z" fill="#79B900"/>
</svg>
