<svg width="50" height="51" viewBox="0 0 50 51" fill="none" xmlns="http://www.w3.org/2000/svg">
<path d="M46.9941 46.1204C43.7206 45.6321 40.2245 45.258 36.5927 45.0061C36.5468 44.3733 36.0185 43.8723 35.374 43.8723H34.9316V41.7522C37.3574 41.7541 42.5302 41.7502 44.9853 41.7522C45.3749 41.7629 45.6786 41.3381 45.538 40.9729L42.2411 31.5598C42.2012 31.4451 42.1265 31.3456 42.0274 31.2753C41.9284 31.2049 41.8099 31.1672 41.6884 31.1672H25.2021C25.0806 31.1672 24.9621 31.2049 24.863 31.2753C24.764 31.3456 24.6893 31.4451 24.6493 31.5598L21.3525 40.9729C21.2148 41.3381 21.5126 41.7639 21.9052 41.7522C24.3788 41.7483 29.5195 41.7551 31.9579 41.7522V43.8723C31.2499 43.8166 30.6122 43.9866 30.3583 44.7004C26.4882 44.5832 22.5224 44.6038 18.6835 44.759C18.4042 44.134 18.3954 43.8098 17.5956 43.8723C17.4784 42.3713 17.3398 23.301 17.3105 21.218L22.8661 28.6887C23.1386 29.0539 23.5575 29.2473 23.9824 29.2473C24.995 29.2854 25.7226 28.0647 25.1972 27.1877L21.2284 19.9748C20.5722 18.6643 19.1581 18.1516 17.9062 17.5969C17.8867 17.5481 17.8661 17.5002 17.8427 17.4534L22.4179 6.87133C22.8202 5.98266 22.1142 4.91528 21.1406 4.93383C20.6552 4.93383 20.1992 5.19164 19.9501 5.60473L15.6874 12.6467C14.9452 13.7834 15.1113 15.1282 15.2499 16.4006C14.8656 16.539 14.5295 16.7856 14.2822 17.1106L2.89739 18.4319C1.74309 18.5344 1.24505 20.0862 2.12591 20.8401C2.37493 21.0666 2.6972 21.1946 3.03118 21.2014L11.2617 21.3713C12.4999 21.4319 13.5195 20.7834 14.4648 20.0637C14.4384 21.7756 14.2773 42.9602 14.1679 43.8723C13.8437 43.8518 13.4531 43.8723 13.3144 44.2229L12.9325 45.0959C9.14837 45.3889 5.5263 45.8166 2.16009 46.3694C1.46087 46.4807 1.55071 47.5383 2.25481 47.5334C5.44524 47.0295 8.83489 46.5969 12.3993 46.3137C12.1435 46.719 12.3681 47.2717 12.874 47.2756H18.8867C19.2958 47.2873 19.5986 46.8254 19.4238 46.4543L19.1855 45.9104C22.8447 45.7727 26.6054 45.759 30.289 45.8704C30.2997 46.3713 30.1493 47.1174 30.8749 47.1536H36.0087C36.5849 47.1174 36.622 46.6467 36.5947 46.1799C40.2011 46.426 43.6503 46.8157 46.9062 47.2854C47.6181 47.2805 47.7021 46.2317 46.9921 46.1194L46.9941 46.1204ZM15.5878 19.2278C14.4755 18.7239 15.1972 17.0598 16.3251 17.5227C17.4394 18.0286 16.7158 19.6946 15.5878 19.2278ZM24.1962 27.8567C24.2031 28.0618 23.9228 28.1565 23.8046 27.9885L22.6669 26.4582C22.8574 26.3205 23.0419 26.178 23.2206 26.0295L24.1689 27.7532C24.1865 27.7854 24.1952 27.8196 24.1952 27.8567H24.1962ZM20.2001 20.5393L22.6445 24.9807C22.4271 25.1695 22.2013 25.3484 21.9677 25.5168L17.6152 19.6643C17.7851 19.4465 17.9159 19.1877 17.9863 18.9192C18.831 19.2805 19.7665 19.6672 20.2011 20.5393H20.2001ZM20.9521 6.20922C21.08 5.98266 21.4492 6.16625 21.3398 6.40649L20.5214 8.29907C20.3027 8.1975 20.081 8.10571 19.8554 8.01977L20.9521 6.20825V6.20922ZM16.6894 13.2512L19.2372 9.04125C19.5136 9.13989 19.789 9.25024 20.0566 9.37524L16.9628 16.5315C16.7939 16.4368 16.6083 16.3684 16.4199 16.3264C16.3359 15.3616 16.0986 14.1057 16.6904 13.2512H16.6894ZM2.91497 19.9719C2.78118 19.8674 2.85149 19.6057 3.03411 19.595L4.93157 19.3752C4.9511 19.6125 4.97747 19.844 5.01165 20.0696C4.95794 20.0471 2.87786 20.0803 2.91497 19.9729V19.9719ZM12.9765 19.6789C12.4851 20.031 11.8923 20.2134 11.288 20.1985L6.20208 20.094C6.15415 19.8112 6.11896 19.5264 6.09661 19.2405L13.8583 18.3401C13.8544 18.5608 13.8857 18.7815 13.9511 18.9934L12.9765 19.6799V19.6789ZM15.4306 41.012C15.4306 41.012 15.6337 20.4553 15.6347 20.4495C15.7997 20.4768 15.9658 20.4856 16.1308 20.47C16.1611 22.5901 16.3056 42.4016 16.4228 43.8713H15.3417L15.4306 41.012ZM13.7714 46.1038L14.2353 45.0432H17.5283L17.7695 45.594C17.7704 45.5969 17.7734 45.6028 17.7743 45.6057L17.9921 46.1038H13.7704H13.7714ZM32.5429 40.5793H28.371L28.9902 37.0442H32.8583V40.5793H32.5429ZM32.8583 32.3381V35.8723H29.1952L29.8144 32.3381H32.8583ZM37.0732 32.3381L37.6923 35.8723H34.0302V32.3381H37.0732ZM34.0302 37.0442H37.8974L38.5165 40.5793H34.0302V37.0442ZM39.706 40.5793L39.0868 37.0442H42.9199L44.1581 40.5793H39.706ZM42.5097 35.8723H38.8818L38.2626 32.3381H41.2714L42.5097 35.8723ZM25.6171 32.3381H28.6249L28.0058 35.8723H24.3788L25.6171 32.3381ZM23.9687 37.0442H27.8007L27.1816 40.5793H22.7304L23.9687 37.0442ZM33.1288 41.7512H33.7587V43.8713H33.1288V41.7512ZM35.4247 45.9817H31.4628V45.095C31.4628 45.0666 31.4863 45.0432 31.5146 45.0432H35.373C35.4013 45.0432 35.4247 45.0666 35.4247 45.095V45.9817Z" fill="#79B900"/>
<path d="M32.2158 18.4482C33.3681 22.1396 38.5713 22.5186 40.2617 19.1035C42.0508 15.7002 38.6845 11.7363 35.0361 12.9512C32.7861 13.624 31.4502 16.2285 32.2168 18.4482H32.2158ZM33.5302 15.6504C34.8056 13.1309 38.5674 13.4375 39.417 16.1309C39.9775 17.7549 39 19.6602 37.3535 20.1533C34.7138 21.0605 32.2041 18.1045 33.5293 15.6504H33.5302ZM34.1103 11.9893C34.3613 12.7207 35.4492 12.3652 35.2256 11.6299L34.5791 9.62012C34.331 8.8916 33.2402 9.24121 33.4638 9.97949L34.1103 11.9893ZM29.0634 20.0478C29.0429 20.1162 31.1992 19.377 31.2539 19.373C31.9824 19.125 31.6328 18.0342 30.8955 18.2578L28.8847 18.9043C28.2549 19.0986 28.4131 20.0586 29.0644 20.0478H29.0634ZM37.8994 21.8516C37.5918 21.9512 37.4218 22.2812 37.5215 22.5889L38.1689 24.5996C38.2675 24.9102 38.6064 25.0771 38.9062 24.9775C39.2138 24.8779 39.3838 24.5479 39.2841 24.2402L38.6367 22.2295C38.6132 22.1562 38.5754 22.0883 38.5256 22.0297C38.4758 21.971 38.4149 21.9227 38.3464 21.8876C38.2779 21.8525 38.2032 21.8313 38.1265 21.8251C38.0498 21.8189 37.9726 21.8279 37.8994 21.8516ZM41.1162 15.584C41.2148 15.8945 41.5537 16.0615 41.8535 15.9619L43.8633 15.3154C44.1718 15.2168 44.3408 14.8867 44.2422 14.5781C44.2186 14.5049 44.1809 14.437 44.1311 14.3783C44.0812 14.3196 44.0204 14.2714 43.9519 14.2363C43.8834 14.2012 43.8087 14.1799 43.732 14.1737C43.6553 14.1675 43.5781 14.1765 43.5049 14.2002L41.4951 14.8467C41.1865 14.9453 41.0175 15.2754 41.1162 15.584ZM31.8535 13.8076C32.4228 14.3193 33.206 13.4561 32.6396 12.9385L31.8994 12.2686C31.7842 12.1645 31.6324 12.1103 31.4773 12.118C31.3223 12.1257 31.1766 12.1946 31.0722 12.3096C30.8554 12.5498 30.873 12.9199 31.1133 13.1367L31.8535 13.8066V13.8076ZM29.833 16.2998L30.8086 16.5098C31.1172 16.5791 31.4384 16.3789 31.5049 16.0605C31.5732 15.7441 31.372 15.4326 31.0556 15.3643L30.08 15.1543C29.3242 15.0049 29.083 16.125 29.833 16.2998ZM32.2021 20.8437L31.5322 21.584C31.1865 21.9404 31.4785 22.5801 31.9668 22.5635C32.1269 22.5635 32.2861 22.498 32.4013 22.3711L33.0713 21.6309C33.583 21.0605 32.7197 20.2783 32.2021 20.8447V20.8437Z" fill="#79B900"/>
<path d="M34.6279 22.4301L34.418 23.4056C34.3359 23.765 34.624 24.1195 34.9912 24.1146C35.2617 24.1146 35.5039 23.9271 35.5635 23.6517L35.7734 22.6762C35.9229 21.9203 34.8027 21.6791 34.6279 22.4291V22.4301ZM40.8945 20.4125C40.3242 19.9008 39.542 20.764 40.1084 21.2816L40.8486 21.9515C40.9056 22.0032 40.9722 22.0431 41.0447 22.069C41.1171 22.0949 41.1939 22.1062 41.2707 22.1024C41.3475 22.0986 41.4228 22.0797 41.4923 22.0468C41.5618 22.0138 41.6242 21.9675 41.6758 21.9105C41.8926 21.6703 41.875 21.3002 41.6348 21.0834L40.8945 20.4135V20.4125ZM42.793 19.0795C43.4766 19.0863 43.5947 18.0619 42.916 17.9203L41.9404 17.7094C41.625 17.641 41.3125 17.8422 41.2441 18.1586C41.1758 18.475 41.377 18.7865 41.6934 18.8549C41.7637 18.8666 42.7529 19.0961 42.793 19.0795ZM40.1113 13.5687C40.2705 13.5687 40.4297 13.5043 40.5459 13.3763L41.2158 12.6371C41.3201 12.5218 41.3744 12.3698 41.3667 12.2145C41.359 12.0593 41.29 11.9134 41.1748 11.809C41.0595 11.7047 40.9075 11.6504 40.7523 11.6581C40.597 11.6658 40.4511 11.7348 40.3467 11.85L39.6768 12.5892C39.3311 12.9457 39.6221 13.5853 40.1104 13.5687H40.1113ZM37.4238 12.2406C37.7324 12.3099 38.0537 12.1097 38.1201 11.7914L38.3301 10.8158C38.3984 10.4994 38.1973 10.1879 37.8809 10.1195C37.5645 10.0512 37.2529 10.2523 37.1846 10.5687L36.9746 11.5443C36.9584 11.6195 36.9571 11.6972 36.9709 11.7729C36.9847 11.8486 37.0132 11.9209 37.055 11.9855C37.0967 12.0502 37.1507 12.106 37.214 12.1498C37.2773 12.1935 37.3486 12.2244 37.4238 12.2406ZM7.76758 10.7201C6.88086 10.7152 5.97461 10.7113 4.74805 10.7064C4.4209 10.7035 4.16114 10.9662 4.16016 11.2904C4.15918 11.6146 4.41992 11.8773 4.74414 11.8783C7.33887 11.8881 8.50489 11.8978 11.1436 11.9066C11.8877 11.9095 12.6182 11.9711 12.9229 12.4027C13.1475 12.6986 12.9941 13.3012 12.6543 13.4525C12.251 13.6254 11.9141 13.3773 11.79 13.0219C11.7675 12.9482 11.7307 12.8798 11.6816 12.8204C11.6326 12.7611 11.5723 12.712 11.5043 12.676C11.4363 12.64 11.3618 12.6177 11.2851 12.6106C11.2085 12.6034 11.1312 12.6114 11.0576 12.6342C10.0811 13.0521 11.0654 14.3021 11.7119 14.5355C11.9355 14.6322 12.1738 14.681 12.4102 14.681C13.8486 14.723 14.7061 12.851 13.8799 11.7279C13.1846 10.7426 11.8086 10.7377 11.1475 10.7357C9.75489 10.7308 8.77442 10.726 7.76856 10.7211L7.76758 10.7201ZM3.4336 7.59803C6.05371 7.58924 6.8916 7.57947 9.51075 7.57068C10.793 7.66443 12.9697 7.07166 12.501 5.0326C12.0557 3.20057 9.57715 3.1742 9.03223 4.93982C8.81836 5.68006 9.91407 6.016 10.1523 5.28357C10.1814 5.1868 10.2311 5.09749 10.2981 5.02179C10.365 4.94609 10.4476 4.88581 10.54 4.8451C11.1123 4.56287 11.6289 5.41346 11.2861 5.90174C10.9805 6.33338 10.251 6.39588 9.50684 6.39783C6.8877 6.40662 6.05078 6.41639 3.43164 6.42517C2.66602 6.43885 2.66211 7.58435 3.4336 7.59705V7.59803ZM8.41309 9.74842C9.18067 9.73474 9.1836 8.58924 8.41309 8.57654C5.22852 8.58142 4.37989 8.58533 1.07813 8.58924C0.754885 8.58924 0.49219 8.85193 0.493167 9.17615C0.493167 9.49939 0.755862 9.76209 1.08008 9.76111C4.38184 9.75721 5.2295 9.7533 8.41407 9.74842H8.41309Z" fill="#79B900"/>
</svg>
