<svg width="50" height="51" viewBox="0 0 50 51" fill="none" xmlns="http://www.w3.org/2000/svg">
<g clip-path="url(#clip0_543_670)">
<path d="M17.9688 50.5H0.78125C0.57405 50.5 0.375336 50.4177 0.228823 50.2712C0.08231 50.1247 0 49.926 0 49.7188V38.7812C0 38.574 0.08231 38.3753 0.228823 38.2288C0.375336 38.0823 0.57405 38 0.78125 38H17.9688C18.176 38 18.3747 38.0823 18.5212 38.2288C18.6677 38.3753 18.75 38.574 18.75 38.7812V49.7188C18.75 49.926 18.6677 50.1247 18.5212 50.2712C18.3747 50.4177 18.176 50.5 17.9688 50.5ZM1.5625 48.9375H17.1875V39.5625H1.5625V48.9375Z" fill="#79B900"/>
<path d="M5.46875 39.5625H3.125C2.9178 39.5625 2.71909 39.4802 2.57257 39.3337C2.42606 39.1872 2.34375 38.9885 2.34375 38.7812V36.4375C2.34375 36.2303 2.42606 36.0316 2.57257 35.8851C2.71909 35.7386 2.9178 35.6562 3.125 35.6562H5.46875C5.67595 35.6562 5.87466 35.7386 6.02118 35.8851C6.16769 36.0316 6.25 36.2303 6.25 36.4375V38.7812C6.25 38.9885 6.16769 39.1872 6.02118 39.3337C5.87466 39.4802 5.67595 39.5625 5.46875 39.5625ZM3.90625 38H4.6875V37.2188H3.90625V38ZM15.625 39.5625H13.2812C13.074 39.5625 12.8753 39.4802 12.7288 39.3337C12.5823 39.1872 12.5 38.9885 12.5 38.7812V36.4375C12.5 36.2303 12.5823 36.0316 12.7288 35.8851C12.8753 35.7386 13.074 35.6562 13.2812 35.6562H15.625C15.8322 35.6562 16.0309 35.7386 16.1774 35.8851C16.3239 36.0316 16.4062 36.2303 16.4062 36.4375V38.7812C16.4062 38.9885 16.3239 39.1872 16.1774 39.3337C16.0309 39.4802 15.8322 39.5625 15.625 39.5625ZM14.0625 38H14.8438V37.2188H14.0625V38ZM8.59375 45.0312C8.46993 45.0312 8.3479 45.0017 8.23772 44.9452C8.12753 44.8888 8.03235 44.8069 7.96002 44.7064C7.88768 44.6059 7.84027 44.4897 7.82168 44.3673C7.8031 44.2449 7.81388 44.1198 7.85313 44.0023L8.63438 41.6586C8.70197 41.4646 8.84323 41.3051 9.02759 41.2145C9.21194 41.1239 9.42456 41.1096 9.6194 41.1746C9.81425 41.2396 9.97565 41.3788 10.0687 41.5619C10.1617 41.745 10.1788 41.9574 10.1164 42.1531L9.33516 44.4969C9.28336 44.6524 9.18398 44.7877 9.05106 44.8836C8.91814 44.9795 8.75843 45.0311 8.59453 45.0312H8.59375Z" fill="#79B900"/>
<path d="M10.1562 45.0312H8.59375C8.38655 45.0312 8.18784 44.9489 8.04132 44.8024C7.89481 44.6559 7.8125 44.4572 7.8125 44.25C7.8125 44.0428 7.89481 43.8441 8.04132 43.6976C8.18784 43.5511 8.38655 43.4688 8.59375 43.4688H10.1562C10.3635 43.4688 10.5622 43.5511 10.7087 43.6976C10.8552 43.8441 10.9375 44.0428 10.9375 44.25C10.9375 44.4572 10.8552 44.6559 10.7087 44.8024C10.5622 44.9489 10.3635 45.0312 10.1562 45.0312Z" fill="#79B900"/>
<path d="M8.59297 47.375C8.45159 47.3749 8.3129 47.3364 8.19168 47.2637C8.07045 47.1909 7.97123 47.0867 7.9046 46.962C7.83797 46.8373 7.80642 46.6969 7.81331 46.5557C7.82021 46.4144 7.86529 46.2778 7.94375 46.1602L9.50625 43.8164C9.56319 43.731 9.63639 43.6577 9.72166 43.6007C9.80693 43.5436 9.90261 43.5039 10.0032 43.4838C10.1038 43.4637 10.2074 43.4636 10.3081 43.4835C10.4087 43.5035 10.5045 43.5431 10.5898 43.6C10.6752 43.6569 10.7485 43.7301 10.8056 43.8154C10.8627 43.9007 10.9024 43.9964 10.9225 44.097C10.9426 44.1976 10.9426 44.3012 10.9227 44.4018C10.9028 44.5025 10.8632 44.5982 10.8062 44.6836L9.24375 47.0273C9.17241 47.1345 9.07564 47.2224 8.96209 47.283C8.84853 47.3437 8.72171 47.3753 8.59297 47.375ZM3.125 48.1562C2.9178 48.1562 2.71909 48.0739 2.57257 47.9274C2.42606 47.7809 2.34375 47.5822 2.34375 47.375V41.125C2.34375 40.9178 2.42606 40.7191 2.57257 40.5726C2.71909 40.4261 2.9178 40.3438 3.125 40.3438C3.3322 40.3438 3.53091 40.4261 3.67743 40.5726C3.82394 40.7191 3.90625 40.9178 3.90625 41.125V47.375C3.90625 47.5822 3.82394 47.7809 3.67743 47.9274C3.53091 48.0739 3.3322 48.1562 3.125 48.1562ZM15.625 48.1562C15.4178 48.1562 15.2191 48.0739 15.0726 47.9274C14.9261 47.7809 14.8438 47.5822 14.8438 47.375V41.125C14.8438 40.9178 14.9261 40.7191 15.0726 40.5726C15.2191 40.4261 15.4178 40.3438 15.625 40.3438C15.8322 40.3438 16.0309 40.4261 16.1774 40.5726C16.3239 40.7191 16.4062 40.9178 16.4062 41.125V47.375C16.4062 47.5822 16.3239 47.7809 16.1774 47.9274C16.0309 48.0739 15.8322 48.1562 15.625 48.1562ZM20.3125 49.7188H17.9688C17.7615 49.7188 17.5628 49.6364 17.4163 49.4899C17.2698 49.3434 17.1875 49.1447 17.1875 48.9375V45.0312C17.1875 44.824 17.2698 44.6253 17.4163 44.4788C17.5628 44.3323 17.7615 44.25 17.9688 44.25H20.3125C20.5197 44.25 20.7184 44.3323 20.8649 44.4788C21.0114 44.6253 21.0938 44.824 21.0938 45.0312V48.9375C21.0938 49.1447 21.0114 49.3434 20.8649 49.4899C20.7184 49.6364 20.5197 49.7188 20.3125 49.7188ZM18.75 48.1562H19.5312V45.8125H18.75V48.1562Z" fill="#79B900"/>
<path d="M25 47.375H20.3125C20.1053 47.375 19.9066 47.2927 19.7601 47.1462C19.6136 46.9997 19.5312 46.801 19.5312 46.5938C19.5312 46.3865 19.6136 46.1878 19.7601 46.0413C19.9066 45.8948 20.1053 45.8125 20.3125 45.8125H25C25.2072 45.8125 25.4059 45.8948 25.5524 46.0413C25.6989 46.1878 25.7812 46.3865 25.7812 46.5938C25.7812 46.801 25.6989 46.9997 25.5524 47.1462C25.4059 47.2927 25.2072 47.375 25 47.375Z" fill="#79B900"/>
<path d="M25 47.375C24.7928 47.375 24.5941 47.2927 24.4476 47.1462C24.3011 46.9997 24.2188 46.801 24.2188 46.5938V41.9062C24.2188 41.699 24.3011 41.5003 24.4476 41.3538C24.5941 41.2073 24.7928 41.125 25 41.125C25.2072 41.125 25.4059 41.2073 25.5524 41.3538C25.6989 41.5003 25.7812 41.699 25.7812 41.9062V46.5938C25.7812 46.801 25.6989 46.9997 25.5524 47.1462C25.4059 47.2927 25.2072 47.375 25 47.375Z" fill="#79B900"/>
<path d="M35.9375 42.6875H25C24.7928 42.6875 24.5941 42.6052 24.4476 42.4587C24.3011 42.3122 24.2188 42.1135 24.2188 41.9062C24.2188 41.699 24.3011 41.5003 24.4476 41.3538C24.5941 41.2073 24.7928 41.125 25 41.125H35.9375C36.1447 41.125 36.3434 41.2073 36.4899 41.3538C36.6364 41.5003 36.7188 41.699 36.7188 41.9062C36.7188 42.1135 36.6364 42.3122 36.4899 42.4587C36.3434 42.6052 36.1447 42.6875 35.9375 42.6875Z" fill="#79B900"/>
<path d="M40.6248 45.0312H35.9373C35.7301 45.0312 35.5314 44.9489 35.3848 44.8024C35.2383 44.6559 35.156 44.4572 35.156 44.25V31.75C35.156 31.5428 35.2383 31.3441 35.3848 31.1976C35.5314 31.0511 35.7301 30.9688 35.9373 30.9688H40.6248C40.832 30.9688 41.0307 31.0511 41.1772 31.1976C41.3237 31.3441 41.406 31.5428 41.406 31.75V44.25C41.406 44.4572 41.3237 44.6559 41.1772 44.8024C41.0307 44.9489 40.832 45.0312 40.6248 45.0312ZM36.7185 43.4688H39.8435V32.5312H36.7185V43.4688ZM32.031 33.3125H8.59352C8.44915 33.3125 8.3076 33.2726 8.18456 33.1971C8.06153 33.1215 7.96182 33.0134 7.89652 32.8847C7.83121 32.7559 7.80286 32.6116 7.8146 32.4677C7.82635 32.3238 7.87773 32.186 7.96305 32.0695L25.1506 8.63203C25.2231 8.53297 25.318 8.45241 25.4276 8.39689C25.5371 8.34137 25.6582 8.31246 25.781 8.3125H49.2185C49.3629 8.31245 49.5044 8.35241 49.6275 8.42793C49.7505 8.50345 49.8502 8.61159 49.9155 8.74034C49.9808 8.86909 50.0092 9.01342 49.9974 9.15731C49.9857 9.30119 49.9343 9.43901 49.849 9.55547L32.6615 32.993C32.5889 33.092 32.494 33.1726 32.3845 33.2281C32.2749 33.2836 32.1538 33.3125 32.031 33.3125ZM10.1357 31.75H31.6357L47.6763 9.875H26.1763L10.1357 31.75Z" fill="#79B900"/>
<path d="M39.8438 32.5312H36.7188C36.5115 32.5312 36.3128 32.4489 36.1663 32.3024C36.0198 32.1559 35.9375 31.9572 35.9375 31.75V26.1406C35.9375 25.9334 36.0198 25.7347 36.1663 25.5882C36.3128 25.4417 36.5115 25.3594 36.7188 25.3594C36.926 25.3594 37.1247 25.4417 37.2712 25.5882C37.4177 25.7347 37.5 25.9334 37.5 26.1406V30.9688H39.0625V21.875C39.0625 21.6678 39.1448 21.4691 39.2913 21.3226C39.4378 21.1761 39.6365 21.0938 39.8438 21.0938C40.051 21.0938 40.2497 21.1761 40.3962 21.3226C40.5427 21.4691 40.625 21.6678 40.625 21.875V31.75C40.625 31.9572 40.5427 32.1559 40.3962 32.3024C40.2497 32.4489 40.051 32.5312 39.8438 32.5312ZM42.9688 48.1562H33.5938C33.3865 48.1562 33.1878 48.0739 33.0413 47.9274C32.8948 47.7809 32.8125 47.5822 32.8125 47.375V44.25C32.8125 44.0428 32.8948 43.8441 33.0413 43.6976C33.1878 43.5511 33.3865 43.4688 33.5938 43.4688H42.9688C43.176 43.4688 43.3747 43.5511 43.5212 43.6976C43.6677 43.8441 43.75 44.0428 43.75 44.25V47.375C43.75 47.5822 43.6677 47.7809 43.5212 47.9274C43.3747 48.0739 43.176 48.1562 42.9688 48.1562ZM34.375 46.5938H42.1875V45.0312H34.375V46.5938Z" fill="#79B900"/>
<path d="M46.0937 50.4997H30.4687C30.2615 50.4997 30.0628 50.4174 29.9163 50.2709C29.7698 50.1244 29.6875 49.9257 29.6875 49.7185V47.3747C29.6875 47.1675 29.7698 46.9688 29.9163 46.8223C30.0628 46.6758 30.2615 46.5935 30.4687 46.5935H46.0937C46.3009 46.5935 46.4997 46.6758 46.6462 46.8223C46.7927 46.9688 46.875 47.1675 46.875 47.3747V49.7185C46.875 49.9257 46.7927 50.1244 46.6462 50.2709C46.4997 50.4174 46.3009 50.4997 46.0937 50.4997ZM31.25 48.9372H45.3125V48.156H31.25V48.9372ZM16.4055 33.3122C16.2613 33.3119 16.12 33.2716 15.9973 33.196C15.8745 33.1203 15.7751 33.0122 15.7099 32.8836C15.6447 32.755 15.6164 32.6109 15.628 32.4672C15.6397 32.3234 15.6908 32.1857 15.7758 32.0693L32.9633 8.63177C33.0858 8.46466 33.2698 8.35308 33.4746 8.32158C33.6794 8.29008 33.8884 8.34124 34.0555 8.4638C34.2226 8.58636 34.3341 8.77028 34.3656 8.9751C34.3971 9.17993 34.346 9.38888 34.2234 9.55599L17.0359 32.9935C16.9633 33.0927 16.8682 33.1733 16.7585 33.2288C16.6489 33.2843 16.5276 33.3132 16.4047 33.313L16.4055 33.3122ZM24.218 33.3122C24.0738 33.3119 23.9325 33.2716 23.8098 33.196C23.687 33.1203 23.5876 33.0122 23.5224 32.8836C23.4572 32.755 23.4289 32.6109 23.4405 32.4672C23.4522 32.3234 23.5033 32.1857 23.5883 32.0693L40.7758 8.63177C40.8365 8.54902 40.9128 8.47904 41.0006 8.42582C41.0883 8.3726 41.1857 8.33718 41.2871 8.32158C41.3885 8.30599 41.492 8.31052 41.5917 8.33492C41.6913 8.35932 41.7852 8.40311 41.868 8.4638C41.9507 8.52448 42.0207 8.60087 42.0739 8.6886C42.1271 8.77633 42.1625 8.87368 42.1781 8.9751C42.1937 9.07652 42.1892 9.18002 42.1648 9.27969C42.1404 9.37936 42.0966 9.47324 42.0359 9.55599L24.8484 32.9935C24.7758 33.0927 24.6807 33.1733 24.571 33.2288C24.4614 33.2843 24.3401 33.3132 24.2172 33.313L24.218 33.3122Z" fill="#79B900"/>
<path d="M45.3125 14.5625H22.6562C22.449 14.5625 22.2503 14.4802 22.1038 14.3337C21.9573 14.1872 21.875 13.9885 21.875 13.7812C21.875 13.574 21.9573 13.3753 22.1038 13.2288C22.2503 13.0823 22.449 13 22.6562 13H45.3125C45.5197 13 45.7184 13.0823 45.8649 13.2288C46.0114 13.3753 46.0938 13.574 46.0938 13.7812C46.0938 13.9885 46.0114 14.1872 45.8649 14.3337C45.7184 14.4802 45.5197 14.5625 45.3125 14.5625ZM42.1875 19.25H19.5312C19.324 19.25 19.1253 19.1677 18.9788 19.0212C18.8323 18.8747 18.75 18.676 18.75 18.4688C18.75 18.2615 18.8323 18.0628 18.9788 17.9163C19.1253 17.7698 19.324 17.6875 19.5312 17.6875H42.1875C42.3947 17.6875 42.5934 17.7698 42.7399 17.9163C42.8864 18.0628 42.9688 18.2615 42.9688 18.4688C42.9688 18.676 42.8864 18.8747 42.7399 19.0212C42.5934 19.1677 42.3947 19.25 42.1875 19.25ZM39.0625 23.9375H16.4062C16.199 23.9375 16.0003 23.8552 15.8538 23.7087C15.7073 23.5622 15.625 23.3635 15.625 23.1562C15.625 22.949 15.7073 22.7503 15.8538 22.6038C16.0003 22.4573 16.199 22.375 16.4062 22.375H39.0625C39.2697 22.375 39.4684 22.4573 39.6149 22.6038C39.7614 22.7503 39.8438 22.949 39.8438 23.1562C39.8438 23.3635 39.7614 23.5622 39.6149 23.7087C39.4684 23.8552 39.2697 23.9375 39.0625 23.9375ZM35.9375 28.625H13.2812C13.074 28.625 12.8753 28.5427 12.7288 28.3962C12.5823 28.2497 12.5 28.051 12.5 27.8438C12.5 27.6365 12.5823 27.4378 12.7288 27.2913C12.8753 27.1448 13.074 27.0625 13.2812 27.0625H35.9375C36.1447 27.0625 36.3434 27.1448 36.4899 27.2913C36.6364 27.4378 36.7188 27.6365 36.7188 27.8438C36.7188 28.051 36.6364 28.2497 36.4899 28.3962C36.3434 28.5427 36.1447 28.625 35.9375 28.625ZM7.8125 12.2188C5.65859 12.2188 3.90625 10.4664 3.90625 8.3125C3.90625 6.15859 5.65859 4.40625 7.8125 4.40625C9.96641 4.40625 11.7188 6.15859 11.7188 8.3125C11.7188 10.4664 9.96641 12.2188 7.8125 12.2188ZM7.8125 5.96875C6.52031 5.96875 5.46875 7.02031 5.46875 8.3125C5.46875 9.60469 6.52031 10.6562 7.8125 10.6562C9.10469 10.6562 10.1562 9.60469 10.1562 8.3125C10.1562 7.02031 9.10469 5.96875 7.8125 5.96875ZM7.8125 16.125C7.6053 16.125 7.40659 16.0427 7.26007 15.8962C7.11356 15.7497 7.03125 15.551 7.03125 15.3438V14.1719C7.03125 13.9647 7.11356 13.766 7.26007 13.6194C7.40659 13.4729 7.6053 13.3906 7.8125 13.3906C8.0197 13.3906 8.21841 13.4729 8.36493 13.6194C8.51144 13.766 8.59375 13.9647 8.59375 14.1719V15.3438C8.59375 15.551 8.51144 15.7497 8.36493 15.8962C8.21841 16.0427 8.0197 16.125 7.8125 16.125ZM7.8125 3.23438C7.6053 3.23438 7.40659 3.15207 7.26007 3.00555C7.11356 2.85904 7.03125 2.66033 7.03125 2.45312V1.28125C7.03125 1.07405 7.11356 0.875336 7.26007 0.728823C7.40659 0.58231 7.6053 0.5 7.8125 0.5C8.0197 0.5 8.21841 0.58231 8.36493 0.728823C8.51144 0.875336 8.59375 1.07405 8.59375 1.28125V2.45312C8.59375 2.66033 8.51144 2.85904 8.36493 3.00555C8.21841 3.15207 8.0197 3.23438 7.8125 3.23438ZM1.95312 9.09375H0.78125C0.57405 9.09375 0.375336 9.01144 0.228823 8.86493C0.08231 8.71841 0 8.5197 0 8.3125C0 8.1053 0.08231 7.90659 0.228823 7.76007C0.375336 7.61356 0.57405 7.53125 0.78125 7.53125H1.95312C2.16033 7.53125 2.35904 7.61356 2.50555 7.76007C2.65207 7.90659 2.73438 8.1053 2.73438 8.3125C2.73438 8.5197 2.65207 8.71841 2.50555 8.86493C2.35904 9.01144 2.16033 9.09375 1.95312 9.09375ZM14.8438 9.09375H13.6719C13.4647 9.09375 13.266 9.01144 13.1194 8.86493C12.9729 8.71841 12.8906 8.5197 12.8906 8.3125C12.8906 8.1053 12.9729 7.90659 13.1194 7.76007C13.266 7.61356 13.4647 7.53125 13.6719 7.53125H14.8438C15.051 7.53125 15.2497 7.61356 15.3962 7.76007C15.5427 7.90659 15.625 8.1053 15.625 8.3125C15.625 8.5197 15.5427 8.71841 15.3962 8.86493C15.2497 9.01144 15.051 9.09375 14.8438 9.09375ZM12.7844 14.0656C12.6818 14.0657 12.5802 14.0456 12.4854 14.0063C12.3906 13.967 12.3045 13.9094 12.232 13.8367L11.4031 13.0078C11.2566 12.8613 11.1743 12.6626 11.1743 12.4555C11.1743 12.3529 11.1945 12.2513 11.2338 12.1565C11.2731 12.0618 11.3306 11.9757 11.4031 11.9031C11.4757 11.8306 11.5618 11.7731 11.6565 11.7338C11.7513 11.6945 11.8529 11.6743 11.9555 11.6743C12.1626 11.6743 12.3613 11.7566 12.5078 11.9031L13.3367 12.732C13.4463 12.8411 13.521 12.9804 13.5514 13.132C13.5817 13.2837 13.5663 13.4409 13.5072 13.5838C13.448 13.7267 13.3477 13.8488 13.219 13.9346C13.0903 14.0204 12.939 14.066 12.7844 14.0656ZM3.66875 4.95078C3.56614 4.95089 3.46453 4.93072 3.36974 4.89144C3.27495 4.85215 3.18886 4.79453 3.11641 4.72187L2.2875 3.89297C2.14101 3.74648 2.05871 3.54779 2.05871 3.34063C2.05871 3.23805 2.07892 3.13647 2.11817 3.0417C2.15743 2.94693 2.21497 2.86082 2.2875 2.78828C2.36003 2.71575 2.44615 2.65821 2.54092 2.61895C2.63569 2.5797 2.73726 2.55949 2.83984 2.55949C3.04701 2.55949 3.2457 2.64179 3.39219 2.78828L4.22109 3.61719C4.3307 3.7263 4.40542 3.86552 4.43577 4.01717C4.46612 4.16882 4.45072 4.32608 4.39154 4.46896C4.33236 4.61185 4.23206 4.73394 4.10337 4.81972C3.97468 4.90551 3.82341 4.95112 3.66875 4.95078ZM2.84063 14.0656C2.68597 14.066 2.53469 14.0204 2.406 13.9346C2.27731 13.8488 2.17701 13.7267 2.11783 13.5838C2.05865 13.4409 2.04326 13.2837 2.0736 13.132C2.10395 12.9804 2.17867 12.8411 2.28828 12.732L3.11719 11.9031C3.18972 11.8306 3.27583 11.7731 3.3706 11.7338C3.46538 11.6945 3.56695 11.6743 3.66953 11.6743C3.77211 11.6743 3.87369 11.6945 3.96846 11.7338C4.06323 11.7731 4.14934 11.8306 4.22187 11.9031C4.29441 11.9757 4.35195 12.0618 4.3912 12.1565C4.43046 12.2513 4.45066 12.3529 4.45066 12.4555C4.45066 12.558 4.43046 12.6596 4.3912 12.7544C4.35195 12.8492 4.29441 12.9353 4.22187 13.0078L3.39297 13.8367C3.32052 13.9094 3.23442 13.967 3.13964 14.0063C3.04485 14.0456 2.94323 14.0657 2.84063 14.0656ZM11.9563 4.95078C11.8016 4.95112 11.6503 4.90551 11.5216 4.81972C11.3929 4.73394 11.2926 4.61185 11.2335 4.46896C11.1743 4.32608 11.1589 4.16882 11.1892 4.01717C11.2196 3.86552 11.2943 3.7263 11.4039 3.61719L12.2328 2.78828C12.3793 2.64179 12.578 2.55949 12.7852 2.55949C12.9923 2.55949 13.191 2.64179 13.3375 2.78828C13.484 2.93477 13.5663 3.13346 13.5663 3.34063C13.5663 3.54779 13.484 3.74648 13.3375 3.89297L12.5086 4.72187C12.4361 4.79453 12.35 4.85215 12.2553 4.89144C12.1605 4.93072 12.0589 4.95089 11.9563 4.95078Z" fill="#79B900"/>
</g>
<defs>
<clipPath id="clip0_543_670">
<rect width="50" height="50" fill="white" transform="translate(0 0.5)"/>
</clipPath>
</defs>
</svg>
