<svg width="50" height="51" viewBox="0 0 50 51" fill="none" xmlns="http://www.w3.org/2000/svg">
<path d="M9.1024 10.2635H10.3737L11.9297 13.8187H11.1339C10.9319 13.8187 10.7381 13.8989 10.5952 14.0418C10.4524 14.1847 10.3721 14.3784 10.3721 14.5805C10.3721 14.7825 10.4524 14.9763 10.5952 15.1191C10.7381 15.262 10.9319 15.3423 11.1339 15.3423H12.5966L14.1526 18.8974H13.1654C12.9634 18.8974 12.7696 18.9776 12.6267 19.1205C12.4839 19.2634 12.4036 19.4571 12.4036 19.6592C12.4036 19.8612 12.4839 20.055 12.6267 20.1978C12.7696 20.3407 12.9634 20.421 13.1654 20.421H14.8195L16.3755 23.9761H15.7048C15.5028 23.9761 15.309 24.0563 15.1661 24.1992C15.0233 24.3421 14.943 24.5358 14.943 24.7379C14.943 24.9399 15.0233 25.1337 15.1661 25.2765C15.309 25.4194 15.5028 25.4997 15.7048 25.4997H17.0424L17.6203 26.82C17.6604 26.9117 17.7181 26.9946 17.7902 27.0639C17.8623 27.1333 17.9474 27.1877 18.0406 27.2242C18.1338 27.2606 18.2332 27.2783 18.3333 27.2763C18.4333 27.2742 18.532 27.2525 18.6236 27.2123C18.7152 27.1721 18.7981 27.1144 18.8674 27.0422C18.9367 26.9701 18.9911 26.885 19.0276 26.7918C19.064 26.6987 19.0817 26.5992 19.0797 26.4992C19.0777 26.3992 19.056 26.3005 19.0159 26.2089L18.7055 25.4998H22.629L23.2069 26.8201C23.247 26.9118 23.3047 26.9947 23.3768 27.064C23.4489 27.1334 23.534 27.1878 23.6272 27.2243C23.7204 27.2607 23.8199 27.2784 23.9199 27.2764C24.0199 27.2743 24.1186 27.2526 24.2102 27.2124C24.3018 27.1723 24.3847 27.1145 24.454 27.0423C24.5233 26.9702 24.5777 26.8851 24.6142 26.7919C24.6506 26.6988 24.6683 26.5993 24.6663 26.4993C24.6643 26.3993 24.6426 26.3006 24.6025 26.209L24.2921 25.4998H28.2156L28.7935 26.8201C28.8336 26.9118 28.8913 26.9947 28.9634 27.064C29.0355 27.1334 29.1206 27.1878 29.2138 27.2243C29.307 27.2607 29.4065 27.2784 29.5065 27.2764C29.6065 27.2743 29.7052 27.2526 29.7968 27.2124C29.8884 27.1723 29.9713 27.1145 30.0406 27.0423C30.1099 26.9702 30.1643 26.8851 30.2008 26.7919C30.2372 26.6988 30.2549 26.5993 30.2529 26.4993C30.2509 26.3993 30.2292 26.3006 30.1891 26.209L29.8787 25.4998H33.8022L34.3801 26.8201C34.4202 26.9118 34.4779 26.9947 34.55 27.064C34.6221 27.1334 34.7072 27.1878 34.8004 27.2243C34.8936 27.2607 34.993 27.2784 35.0931 27.2764C35.1931 27.2743 35.2918 27.2526 35.3834 27.2124C35.475 27.1723 35.5579 27.1145 35.6272 27.0423C35.6965 26.9702 35.7509 26.8851 35.7874 26.7919C35.8238 26.6988 35.8415 26.5993 35.8395 26.4993C35.8375 26.3993 35.8158 26.3006 35.7757 26.209L35.4653 25.4998H36.0198C36.2218 25.4998 36.4156 25.4195 36.5585 25.2766C36.7013 25.1338 36.7816 24.94 36.7816 24.738C36.7816 24.5359 36.7013 24.3422 36.5585 24.1993C36.4156 24.0564 36.2218 23.9762 36.0198 23.9762H34.7985L33.2425 20.4211H33.4804C33.6824 20.4211 33.8762 20.3408 34.0191 20.1979C34.1619 20.0551 34.2422 19.8613 34.2422 19.6593C34.2422 19.4572 34.1619 19.2635 34.0191 19.1206C33.8762 18.9777 33.6824 18.8975 33.4804 18.8975H32.5756L31.0196 15.3424H31.4489C31.6509 15.3424 31.8447 15.2621 31.9876 15.1192C32.1304 14.9764 32.2107 14.7826 32.2107 14.5806C32.2107 14.3785 32.1304 14.1848 31.9876 14.0419C31.8447 13.899 31.6509 13.8188 31.4489 13.8188H30.3528L28.7968 10.2636H29.4175C29.6195 10.2636 29.8133 10.1833 29.9562 10.0404C30.099 9.89758 30.1793 9.70381 30.1793 9.50177C30.1793 9.29973 30.099 9.10597 29.9562 8.9631C29.8133 8.82023 29.6195 8.73997 29.4175 8.73997H28.1299L27.7778 7.93547C27.7378 7.8437 27.6802 7.76073 27.6081 7.6913C27.536 7.62188 27.4509 7.56738 27.3576 7.53093C27.2644 7.49449 27.1649 7.4768 27.0648 7.4789C26.9648 7.481 26.8661 7.50284 26.7745 7.54317C26.6829 7.5833 26.6 7.64108 26.5307 7.71322C26.4614 7.78536 26.407 7.87045 26.3705 7.96362C26.3341 8.0568 26.3164 8.15624 26.3184 8.25626C26.3204 8.35628 26.3421 8.45493 26.3822 8.54657L26.4669 8.73997H22.5433L22.1912 7.93547C22.1512 7.8437 22.0936 7.76073 22.0215 7.6913C21.9494 7.62188 21.8643 7.56738 21.771 7.53093C21.6778 7.49449 21.5783 7.4768 21.4782 7.4789C21.3782 7.481 21.2795 7.50284 21.1879 7.54317C21.0962 7.58329 21.0134 7.64106 20.9441 7.7132C20.8748 7.78534 20.8203 7.87043 20.7839 7.96361C20.7475 8.05679 20.7298 8.15623 20.7318 8.25626C20.7338 8.35628 20.7555 8.45493 20.7956 8.54657L20.8803 8.73997H16.9567L16.6046 7.93547C16.5647 7.84369 16.507 7.76069 16.4349 7.69125C16.3628 7.62182 16.2777 7.56731 16.1845 7.53086C16.0912 7.49441 15.9917 7.47673 15.8917 7.47884C15.7916 7.48096 15.6929 7.50282 15.6013 7.54317C15.5096 7.58329 15.4268 7.64106 15.3575 7.7132C15.2882 7.78534 15.2337 7.87043 15.1973 7.96361C15.1609 8.05679 15.1432 8.15623 15.1452 8.25626C15.1472 8.35628 15.1689 8.45493 15.209 8.54657L15.2936 8.73997H11.3701L11.018 7.93547C10.978 7.8437 10.9204 7.76073 10.8483 7.6913C10.7762 7.62188 10.6911 7.56738 10.5978 7.53093C10.5046 7.49449 10.4051 7.4768 10.305 7.4789C10.205 7.481 10.1063 7.50284 10.0147 7.54317C9.92305 7.58329 9.8402 7.64106 9.77088 7.7132C9.70156 7.78534 9.64713 7.87043 9.6107 7.96361C9.57427 8.05679 9.55655 8.15623 9.55856 8.25626C9.56057 8.35628 9.58226 8.45493 9.6224 8.54657L9.707 8.73997H9.1026C8.90056 8.73997 8.70679 8.82023 8.56393 8.9631C8.42106 9.10597 8.3408 9.29973 8.3408 9.50177C8.34077 9.6018 8.36046 9.70085 8.39872 9.79327C8.43698 9.88569 8.49308 9.96967 8.5638 10.0404C8.63453 10.1111 8.7185 10.1672 8.81091 10.2055C8.90332 10.2438 9.00237 10.2635 9.1024 10.2635ZM14.2596 15.3423H18.1832L19.7392 18.8974H15.8156L14.2596 15.3423ZM19.8463 15.3423H23.7698L25.3258 18.8974H21.4023L19.8463 15.3423ZM18.0385 23.9762L16.4825 20.4211H20.406L21.962 23.9762H18.0385ZM23.6252 23.9762L22.0692 20.4211H25.9927L27.5487 23.9762H23.6252ZM33.1353 23.9762H29.2118L27.6558 20.4211H31.5793L33.1353 23.9762ZM30.9124 18.8974H26.989L25.433 15.3423H29.3565L30.9124 18.8974ZM27.1335 10.2635L28.6895 13.8187H24.766L23.21 10.2635H27.1335ZM21.5469 10.2635L23.1029 13.8187H19.1794L17.6234 10.2635H21.5469ZM15.9603 10.2635L17.5163 13.8187H13.5928L12.0368 10.2635H15.9603ZM41.4397 12.8806C43.3338 12.8806 44.8748 11.3396 44.8748 9.44577C44.8748 7.55157 43.3339 6.01067 41.4397 6.01067C39.5456 6.01067 38.0046 7.55157 38.0046 9.44577C38.0046 11.3396 39.5456 12.8806 41.4397 12.8806ZM41.4397 7.53417C42.4936 7.53417 43.3512 8.39167 43.3512 9.44567C43.3512 10.4996 42.4937 11.3569 41.4397 11.3569C40.3858 11.3569 39.5282 10.4996 39.5282 9.44567C39.5282 8.39167 40.3858 7.53417 41.4397 7.53417ZM46.7382 8.69577H46.2864C46.0844 8.69577 45.8906 8.77603 45.7477 8.9189C45.6049 9.06176 45.5246 9.25553 45.5246 9.45757C45.5246 9.65962 45.6049 9.85338 45.7477 9.99625C45.8906 10.1391 46.0844 10.2194 46.2864 10.2194H46.7382C46.9402 10.2194 47.134 10.1391 47.2769 9.99625C47.4197 9.85338 47.5 9.65962 47.5 9.45757C47.5 9.25553 47.4197 9.06176 47.2769 8.9189C47.134 8.77603 46.9402 8.69577 46.7382 8.69577ZM36.0198 10.2593H36.6973C36.8994 10.2593 37.0931 10.179 37.236 10.0361C37.3789 9.89326 37.4592 9.69948 37.4592 9.49742C37.4592 9.29537 37.3789 9.10159 37.236 8.95871C37.0931 8.81584 36.8994 8.73557 36.6973 8.73557H36.0198C35.8193 8.73787 35.6277 8.81915 35.4867 8.96177C35.3457 9.1044 35.2666 9.29687 35.2666 9.49742C35.2666 9.69798 35.3457 9.89045 35.4867 10.0331C35.6277 10.1757 35.8193 10.257 36.0198 10.2593ZM40.73 14.2921V15.4775C40.73 15.6795 40.8103 15.8733 40.9531 16.0161C41.096 16.159 41.2898 16.2393 41.4918 16.2393C41.6938 16.2393 41.8876 16.159 42.0305 16.0161C42.1733 15.8733 42.2536 15.6795 42.2536 15.4775V14.2921C42.2536 14.09 42.1733 13.8963 42.0305 13.7534C41.8876 13.6105 41.6938 13.5303 41.4918 13.5303C41.2898 13.5303 41.096 13.6105 40.9531 13.7534C40.8103 13.8963 40.73 14.09 40.73 14.2921ZM41.4918 5.30877C41.6938 5.30877 41.8876 5.22851 42.0305 5.08565C42.1733 4.94278 42.2536 4.74902 42.2536 4.54697V4.04207C42.2536 3.84003 42.1733 3.64626 42.0305 3.5034C41.8876 3.36053 41.6938 3.28027 41.4918 3.28027C41.2898 3.28027 41.096 3.36053 40.9531 3.5034C40.8103 3.64626 40.73 3.84003 40.73 4.04207V4.54697C40.73 4.74902 40.8103 4.94278 40.9531 5.08565C41.096 5.22851 41.2898 5.30877 41.4918 5.30877ZM44.8029 6.94797C44.903 6.94809 45.002 6.92843 45.0945 6.89013C45.1869 6.85182 45.2709 6.79563 45.3415 6.72477L46.6464 5.41987C46.7172 5.34916 46.7733 5.2652 46.8116 5.17279C46.8499 5.08037 46.8696 4.98131 46.8696 4.88127C46.8696 4.78124 46.8499 4.68218 46.8116 4.58976C46.7733 4.49735 46.7172 4.41338 46.6464 4.34267C46.5757 4.27191 46.4917 4.21577 46.3993 4.17747C46.3069 4.13917 46.2078 4.11946 46.1078 4.11946C46.0078 4.11946 45.9087 4.13917 45.8163 4.17747C45.7239 4.21577 45.6399 4.27191 45.5692 4.34267L44.2643 5.64757C44.1935 5.71828 44.1374 5.80225 44.0991 5.89466C44.0608 5.98708 44.0411 6.08614 44.0411 6.18617C44.0411 6.28621 44.0608 6.38527 44.0991 6.47769C44.1374 6.5701 44.1935 6.65406 44.2643 6.72477C44.3349 6.79563 44.4189 6.85182 44.5113 6.89013C44.6038 6.92843 44.7029 6.94809 44.8029 6.94797ZM37.6416 12.2703L36.3367 13.5752C36.2659 13.6459 36.2098 13.7298 36.1715 13.8223C36.1332 13.9147 36.1135 14.0137 36.1135 14.1138C36.1135 14.2138 36.1332 14.3129 36.1715 14.4053C36.2098 14.4977 36.2659 14.5817 36.3367 14.6524C36.4074 14.7232 36.4913 14.7794 36.5837 14.8177C36.6762 14.856 36.7752 14.8757 36.8753 14.8756C36.9754 14.8757 37.0744 14.856 37.1669 14.8177C37.2593 14.7794 37.3433 14.7232 37.4139 14.6524L38.7188 13.3475C38.7895 13.2768 38.8457 13.1928 38.8839 13.1004C38.9222 13.008 38.9419 12.9089 38.9419 12.8089C38.9419 12.7088 38.9222 12.6098 38.8839 12.5174C38.8457 12.425 38.7895 12.341 38.7188 12.2703C38.6481 12.1995 38.5641 12.1434 38.4717 12.1051C38.3793 12.0668 38.2802 12.0471 38.1802 12.0471C38.0802 12.0471 37.9811 12.0668 37.8887 12.1051C37.7963 12.1434 37.7123 12.1995 37.6416 12.2703ZM44.2643 12.2703C44.1935 12.341 44.1374 12.4249 44.0991 12.5174C44.0608 12.6098 44.0411 12.7088 44.0411 12.8089C44.0411 12.9089 44.0608 13.008 44.0991 13.1004C44.1374 13.1928 44.1935 13.2768 44.2643 13.3475L45.5692 14.6524C45.718 14.8012 45.9129 14.8756 46.1078 14.8756C46.3027 14.8756 46.4976 14.8012 46.6464 14.6524C46.7172 14.5817 46.7733 14.4977 46.8116 14.4053C46.8499 14.3129 46.8696 14.2138 46.8696 14.1138C46.8696 14.0137 46.8499 13.9147 46.8116 13.8223C46.7733 13.7298 46.7172 13.6459 46.6464 13.5752L45.3415 12.2703C45.2708 12.1995 45.1868 12.1434 45.0944 12.1051C45.002 12.0668 44.9029 12.0471 44.8029 12.0471C44.7029 12.0471 44.6038 12.0668 44.5114 12.1051C44.419 12.1434 44.335 12.1995 44.2643 12.2703ZM37.6416 6.72477C37.7904 6.87357 37.9853 6.94797 38.1802 6.94797C38.3751 6.94797 38.57 6.87357 38.7188 6.72477C38.7895 6.65405 38.8457 6.57008 38.8839 6.47767C38.9222 6.38526 38.9419 6.2862 38.9419 6.18617C38.9419 6.08614 38.9222 5.98709 38.8839 5.89468C38.8457 5.80226 38.7895 5.7183 38.7188 5.64757L37.4139 4.34267C37.3432 4.27191 37.2592 4.21577 37.1668 4.17747C37.0744 4.13917 36.9753 4.11946 36.8753 4.11946C36.7753 4.11946 36.6762 4.13917 36.5838 4.17747C36.4914 4.21577 36.4074 4.27191 36.3367 4.34267C36.2659 4.41338 36.2098 4.49735 36.1715 4.58976C36.1332 4.68218 36.1135 4.78124 36.1135 4.88127C36.1135 4.98131 36.1332 5.08037 36.1715 5.17279C36.2098 5.2652 36.2659 5.34916 36.3367 5.41987L37.6416 6.72477ZM45.6693 43.381V34.7685C45.6693 34.5665 45.589 34.3727 45.4461 34.2299C45.3033 34.087 45.1095 34.0067 44.9075 34.0067H31.1949C30.9929 34.0067 30.7991 34.087 30.6563 34.2299C30.5134 34.3727 30.4332 34.5665 30.4331 34.7685V40.3551H25.3543V34.7685C25.3542 34.5665 25.274 34.3727 25.1311 34.2299C24.9883 34.087 24.7945 34.0067 24.5925 34.0067H10.8799C10.6779 34.0067 10.4841 34.087 10.3413 34.2299C10.1984 34.3727 10.1182 34.5665 10.1181 34.7685V40.3551H5.5473V38.4372C6.4321 38.1217 7.0709 37.284 7.0709 36.2922C7.0709 35.0319 6.0457 34.0067 4.7855 34.0067C3.5253 34.0067 2.5 35.0319 2.5 36.2922C2.5 37.284 3.1388 38.1217 4.0236 38.4372V41.1169C4.02365 41.3189 4.10393 41.5126 4.24678 41.6555C4.38964 41.7983 4.58337 41.8786 4.7854 41.8787H10.1181V43.3809C9.2221 43.7862 8.5945 44.6842 8.5945 45.7298V46.9574C8.59455 47.1594 8.67483 47.3531 8.81769 47.496C8.96054 47.6388 9.15428 47.7191 9.3563 47.7192H26.1162C26.3182 47.7191 26.512 47.6388 26.6548 47.496C26.7977 47.3531 26.8779 47.1594 26.878 46.9574V45.7298C26.878 44.6841 26.2504 43.7862 25.3544 43.3809V41.8788H30.4332V43.381C29.5372 43.7863 28.9096 44.6843 28.9096 45.7299V46.9575C28.9097 47.1595 28.9899 47.3532 29.1328 47.4961C29.2756 47.6389 29.4694 47.7192 29.6714 47.7193H46.4313C46.6333 47.7192 46.8271 47.6389 46.9699 47.4961C47.1128 47.3532 47.1931 47.1595 47.1931 46.9575V45.7299C47.193 44.6843 46.5654 43.7864 45.6693 43.381ZM4.7854 35.5303C5.2055 35.5303 5.5472 35.872 5.5472 36.2921C5.5472 36.7122 5.2055 37.0539 4.7854 37.0539C4.3653 37.0539 4.0236 36.7122 4.0236 36.2921C4.0236 35.8721 4.3654 35.5303 4.7854 35.5303ZM11.6418 35.5303H23.8308V43.1484H11.6418V35.5303ZM25.3543 46.1957H10.1181V45.73C10.1181 45.1468 10.5927 44.6721 11.176 44.6721H24.2964C24.8796 44.6721 25.3543 45.1467 25.3543 45.73V46.1957ZM31.9567 35.5303H44.1457V43.1484H31.9567V35.5303ZM45.6693 46.1957H30.4331V45.73C30.4331 45.1468 30.9077 44.6721 31.491 44.6721H44.6114C45.1947 44.6721 45.6693 45.1467 45.6693 45.73V46.1957Z" fill="#79B900"/>
<path d="M4.0236 28.5604C3.1388 28.8759 2.5 29.7136 2.5 30.7054C2.5 31.9657 3.5252 32.9909 4.7854 32.9909C6.0456 32.9909 7.0708 31.9657 7.0708 30.7054C7.0708 29.7136 6.432 28.8759 5.5472 28.5604V19.5818L10.1151 29.8718C10.1749 30.0065 10.2725 30.1211 10.3961 30.2014C10.5197 30.2818 10.664 30.3246 10.8114 30.3246H41.402C41.5289 30.3246 41.6538 30.293 41.7654 30.2325C41.8769 30.172 41.9716 30.0846 42.0408 29.9782C42.11 29.8718 42.1515 29.7498 42.1615 29.6233C42.1716 29.4968 42.1499 29.3698 42.0984 29.2538L31.1076 4.49479C31.0478 4.36003 30.9502 4.24552 30.8266 4.16515C30.703 4.08478 30.5587 4.042 30.4113 4.04199H3.2618C3.05976 4.04199 2.86599 4.12225 2.72313 4.26512C2.58026 4.40798 2.5 4.60175 2.5 4.80379V12.5558C2.5 12.6622 2.5223 12.7676 2.5655 12.8648L4.0304 16.1646C4.0284 16.1868 4.0237 16.2082 4.0237 16.2309L4.0236 28.5604ZM40.2306 28.8009H15.2014L4.8871 5.56559H29.9158L40.2306 28.8009ZM4.0236 7.37579L13.5343 28.8009H11.307L4.0236 12.3944V7.37579ZM4.7854 31.4672C4.3653 31.4672 4.0236 31.1255 4.0236 30.7054C4.0236 30.2853 4.3653 29.9436 4.7854 29.9436C5.2055 29.9436 5.5472 30.2853 5.5472 30.7054C5.5473 31.1255 5.2055 31.4672 4.7854 31.4672ZM18.4981 38.5775H18.207L18.6717 37.6485C18.762 37.4678 18.7769 37.2585 18.713 37.0669C18.6491 36.8752 18.5117 36.7167 18.331 36.6263C17.9551 36.4393 17.4973 36.5911 17.3088 36.967L16.293 38.9985C16.235 39.1147 16.2077 39.2438 16.2135 39.3735C16.2193 39.5032 16.2581 39.6293 16.3262 39.7399C16.3946 39.8503 16.49 39.9414 16.6035 40.0045C16.7169 40.0677 16.8446 40.1009 16.9744 40.101H17.2655L16.8008 41.03C16.7105 41.2107 16.6956 41.4199 16.7595 41.6116C16.8234 41.8033 16.9608 41.9618 17.1415 42.0522C17.3222 42.1425 17.5315 42.1574 17.7232 42.0935C17.9149 42.0296 18.0733 41.8921 18.1637 41.7114L19.1795 39.6799C19.2375 39.5637 19.2648 39.4346 19.259 39.3049C19.2532 39.1752 19.2144 39.0491 19.1463 38.9385C19.0779 38.8282 18.9824 38.7371 18.869 38.6739C18.7556 38.6108 18.6279 38.5776 18.4981 38.5775ZM38.8131 38.5775H38.522L38.9867 37.6485C39.077 37.4678 39.0919 37.2585 39.028 37.0669C38.9641 36.8752 38.8267 36.7167 38.646 36.6263C38.2695 36.4393 37.8123 36.5911 37.6238 36.967L36.608 38.9985C36.55 39.1147 36.5227 39.2438 36.5285 39.3735C36.5343 39.5032 36.5731 39.6293 36.6412 39.7399C36.7096 39.8503 36.805 39.9413 36.9185 40.0045C37.0319 40.0677 37.1596 40.1009 37.2894 40.101H37.5805L37.1158 41.03C37.0255 41.2107 37.0106 41.4199 37.0745 41.6116C37.1384 41.8033 37.2758 41.9618 37.4565 42.0522C37.6372 42.1425 37.8464 42.1573 38.0381 42.0934C38.2298 42.0295 38.3882 41.8921 38.4786 41.7114L39.4944 39.6799C39.5524 39.5637 39.5797 39.4346 39.5739 39.3049C39.5681 39.1752 39.5293 39.0491 39.4612 38.9385C39.3928 38.8282 39.2974 38.7371 39.184 38.6739C39.0706 38.6108 38.9429 38.5776 38.8131 38.5775Z" fill="#79B900"/>
</svg>
