<svg width="21" height="19" viewBox="0 0 21 19" fill="none" xmlns="http://www.w3.org/2000/svg">
<path fill-rule="evenodd" clip-rule="evenodd" d="M9 18.6484C4.03544 18.6484 0 14.6125 0 9.64844C0 4.68436 4.03544 0.648438 9 0.648438C11.2763 0.648438 13.4128 1.47507 15.0771 3.00093C14.5224 3.32983 13.9876 3.69125 13.4756 4.0833C12.2086 3.06007 10.6286 2.50313 9 2.50572C5.06561 2.50572 1.85728 5.71405 1.85728 9.64844C1.85728 13.5828 5.06561 16.7907 9 16.7907C14.4741 16.7907 17.7241 10.9391 15.3697 6.38982C15.8329 5.95898 16.3125 5.54615 16.8075 5.15227C17.5953 6.51242 18 8.05505 18 9.64796C18 14.6125 13.9646 18.6484 9 18.6484Z" fill="#79B900"/>
<path fill-rule="evenodd" clip-rule="evenodd" d="M9.23713 14.2754C9.18959 14.2747 9.14332 14.2599 9.10419 14.2328C9.06506 14.2058 9.03483 14.1678 9.01731 14.1236C9.00054 14.0901 7.54844 10.341 5.30275 8.92244C4.86357 8.65233 4.52593 8.36545 4.66099 7.72369C4.79604 7.09916 5.21798 6.74428 5.97804 6.5757C7.32861 6.28834 8.7812 8.38221 9.32095 9.24332C11.2127 6.49141 14.9948 2.16861 20.4996 1.6619C20.7649 1.63077 20.8636 2.02445 20.6179 2.1346C20.5336 2.16813 12.6648 5.76487 9.47325 14.1404C9.44939 14.1818 9.41496 14.2161 9.37347 14.2398C9.33198 14.2636 9.28493 14.2758 9.23713 14.2754Z" fill="#79B900"/>
</svg>
