<svg width="36" height="28" viewBox="0 0 36 28" fill="none" xmlns="http://www.w3.org/2000/svg">
<path d="M32.5029 3.12777C34.4692 5.29069 35.6489 7.65024 35.6489 11.5828C35.6489 18.4648 30.7332 24.5604 23.8512 27.7064L22.0815 25.1502C28.5703 21.6109 29.9467 17.0884 30.3399 14.139C29.3568 14.7289 27.9804 14.9255 26.604 14.7289C23.0647 14.3356 20.3118 11.5828 20.3118 7.84687C20.3118 6.0772 21.0984 4.30754 22.2781 2.93114C23.6545 1.55473 25.2276 0.964844 27.1939 0.964844C29.3568 0.964844 31.3231 1.94799 32.5029 3.12777ZM12.8399 3.12777C14.8062 5.29069 15.986 7.65024 15.986 11.5828C15.986 18.4648 11.0703 24.5604 4.18825 27.7064L2.41859 25.1502C8.90735 21.6109 10.2838 17.0884 10.677 14.139C9.69387 14.7289 8.31747 14.9255 6.94106 14.7289C3.40174 14.3356 0.648926 11.3862 0.648926 7.84687C0.648926 6.0772 1.43544 4.30754 2.61522 2.93114C3.99162 1.55473 5.56466 0.964844 7.53095 0.964844C9.69387 0.964844 11.6602 1.94799 12.8399 3.12777Z" fill="#79B900"/>
</svg>
