<svg width="20" height="21" viewBox="0 0 20 21" fill="none" xmlns="http://www.w3.org/2000/svg">
<g clip-path="url(#clip0_543_1899)">
<path d="M18.3895 10.9801C18.3235 10.7739 18.3235 10.5523 18.3895 10.3461L19.0355 8.36209C19.102 8.15607 19.1016 7.93429 19.0345 7.72848C18.9673 7.52268 18.8367 7.34339 18.6615 7.21629L16.9735 5.98829C16.7983 5.86145 16.668 5.68213 16.6015 5.47629L15.9555 3.49049C15.8887 3.28437 15.7582 3.10476 15.5828 2.97753C15.4074 2.8503 15.1962 2.78201 14.9795 2.78249H12.8939C12.6779 2.78249 12.4659 2.71449 12.2899 2.58649L10.6019 1.36049C10.4271 1.23285 10.2164 1.16406 9.99998 1.16406C9.78359 1.16406 9.57281 1.23285 9.39808 1.36049L7.70808 2.58649C7.53408 2.71449 7.32208 2.78249 7.10608 2.78249H5.01828C4.57428 2.78249 4.18028 3.06849 4.04428 3.49249L3.39828 5.47649C3.33128 5.68315 3.2003 5.86316 3.02428 5.99049L1.33848 7.21609C1.16318 7.3432 1.0326 7.52252 0.965423 7.72837C0.898244 7.93422 0.897913 8.15604 0.964477 8.36209L1.61048 10.3459C1.67646 10.5521 1.67646 10.7737 1.61048 10.9799L0.964477 12.9659C0.897913 13.1719 0.898244 13.3938 0.965423 13.5996C1.0326 13.8055 1.16318 13.9848 1.33848 14.1119L3.02648 15.3377C3.20048 15.4657 3.33048 15.6457 3.39848 15.8517L4.04248 17.8357C4.10938 18.0419 4.23984 18.2216 4.41517 18.3491C4.59049 18.4767 4.80169 18.5454 5.01848 18.5455H7.10588C7.32188 18.5455 7.53188 18.6135 7.70788 18.7395L9.39788 19.9675C9.57261 20.0951 9.78339 20.1639 9.99978 20.1639C10.2162 20.1639 10.4269 20.0951 10.6017 19.9675L12.2917 18.7395C12.4657 18.6135 12.6777 18.5455 12.8937 18.5455H14.9815C15.4255 18.5455 15.8195 18.2595 15.9555 17.8355L16.6015 15.8515C16.6675 15.6455 16.7995 15.4655 16.9735 15.3375L18.6613 14.1117C18.8366 13.9846 18.9672 13.8053 19.0343 13.5994C19.1015 13.3936 19.1018 13.1717 19.0353 12.9657L18.3895 10.9801ZM14.1955 8.69009C14.1955 8.95409 14.0915 9.20209 13.9057 9.38809L9.96188 13.3301C9.78388 13.5081 9.53188 13.6101 9.26788 13.6101C9.00388 13.6101 8.74988 13.5081 8.57188 13.3301L6.09008 10.8521C5.70808 10.4701 5.70808 9.84609 6.08808 9.46009C6.46208 9.08609 7.11208 9.08609 7.48408 9.45809L9.26608 11.2401L12.5117 7.99409C12.8857 7.62609 13.5377 7.62609 13.9057 7.99409C14.0917 8.18009 14.1955 8.42809 14.1955 8.69009Z" fill="#79B900"/>
</g>
<defs>
<clipPath id="clip0_543_1899">
<rect width="20" height="20" fill="white" transform="translate(-0.000244141 0.664062)"/>
</clipPath>
</defs>
</svg>
