<svg width="30" height="30" viewBox="0 0 30 30" fill="none" xmlns="http://www.w3.org/2000/svg">
<g clip-path="url(#clip0_543_2218)">
<path d="M26.1955 6.14526C26.1955 4.89981 25.1864 3.8998 23.95 3.8998C22.7046 3.8998 21.7046 4.90435 21.7046 6.14526C21.7046 7.38162 22.7091 8.39071 23.95 8.39071C25.1864 8.39526 26.1955 7.38617 26.1955 6.14526ZM23.9546 2.95435C24.141 2.95435 24.2955 2.7998 24.2955 2.61344V1.14071C24.2955 0.95435 24.141 0.799805 23.9546 0.799805C23.7682 0.799805 23.6137 0.95435 23.6137 1.14071V2.61344C23.6137 2.7998 23.7637 2.95435 23.9546 2.95435ZM22.2864 3.0089C22.3036 3.05018 22.3288 3.08765 22.3605 3.11916C22.3923 3.15067 22.4299 3.17559 22.4713 3.19249C22.5127 3.20939 22.557 3.21794 22.6018 3.21763C22.6465 3.21732 22.6907 3.20818 22.7319 3.19071C22.9046 3.11799 22.9864 2.91799 22.9182 2.74526L22.5955 1.96799C22.56 1.88513 22.4937 1.81934 22.4105 1.78455C22.3274 1.74976 22.234 1.74871 22.15 1.78162C21.9773 1.85435 21.8955 2.05435 21.9637 2.22708L22.2864 3.0089ZM19.7773 4.78162L20.5546 5.10435C20.5958 5.12136 20.6399 5.1301 20.6845 5.13005C20.729 5.13001 20.7732 5.12119 20.8143 5.10409C20.8555 5.087 20.8928 5.06196 20.9243 5.03042C20.9558 4.99888 20.9808 4.96145 20.9978 4.92026C21.0148 4.87907 21.0235 4.83494 21.0235 4.79037C21.0234 4.74581 21.0146 4.7017 20.9975 4.66054C20.9804 4.61939 20.9554 4.58201 20.9238 4.55053C20.8923 4.51905 20.8549 4.49409 20.8137 4.47708L20.0364 4.15435C19.995 4.13702 19.9505 4.12809 19.9056 4.12809C19.8606 4.1281 19.8162 4.13703 19.7747 4.15437C19.7333 4.17171 19.6957 4.19711 19.6641 4.2291C19.6326 4.26109 19.6077 4.29903 19.591 4.34071C19.5182 4.51344 19.6 4.7089 19.7773 4.78162ZM20.9955 7.36344C20.9609 7.27988 20.8946 7.2134 20.8112 7.17849C20.7277 7.14358 20.6339 7.14307 20.55 7.17708L19.7728 7.4998C19.6 7.57253 19.5182 7.77253 19.5864 7.94526C19.6036 7.98654 19.6288 8.02402 19.6605 8.05553C19.6923 8.08704 19.7299 8.11196 19.7713 8.12886C19.8127 8.14576 19.857 8.1543 19.9018 8.15399C19.9465 8.15369 19.9907 8.14454 20.0319 8.12708L20.8091 7.80435C20.9864 7.74071 21.0682 7.54071 20.9955 7.36344ZM22.2773 9.28162L21.9546 10.0589C21.8819 10.2316 21.9637 10.4316 22.141 10.5044C22.1821 10.5218 22.2263 10.531 22.2711 10.5313C22.3158 10.5316 22.3601 10.523 22.4015 10.5061C22.4429 10.4892 22.4806 10.4643 22.5123 10.4328C22.544 10.4013 22.5692 10.3638 22.5864 10.3225L22.9091 9.54526C22.9265 9.50381 22.9354 9.45933 22.9354 9.41441C22.9354 9.36948 22.9265 9.325 22.9091 9.28356C22.8918 9.24211 22.8664 9.20452 22.8344 9.17298C22.8024 9.14143 22.7645 9.11656 22.7228 9.0998C22.6396 9.06504 22.546 9.06465 22.4625 9.09872C22.379 9.1328 22.3124 9.19857 22.2773 9.28162ZM25.9364 10.0634L25.6137 9.28617C25.541 9.11344 25.341 9.03162 25.1682 9.0998C24.9955 9.16799 24.9137 9.37253 24.9819 9.54526L25.3046 10.3225C25.3218 10.3638 25.347 10.4013 25.3787 10.4328C25.4104 10.4643 25.4481 10.4892 25.4895 10.5061C25.5309 10.523 25.5752 10.5316 25.6199 10.5313C25.6647 10.531 25.7089 10.5218 25.75 10.5044C25.9228 10.4362 26.0046 10.2362 25.9364 10.0634ZM28.1228 7.51344L27.3455 7.19071C27.3041 7.17338 27.2596 7.16445 27.2146 7.16446C27.1697 7.16446 27.1252 7.17339 27.0838 7.19073C27.0424 7.20807 27.0048 7.23347 26.9732 7.26546C26.9417 7.29745 26.9168 7.33539 26.9 7.37708C26.8273 7.5498 26.9091 7.7498 27.0864 7.82253L27.8637 8.14526C27.9049 8.16272 27.9491 8.17187 27.9938 8.17218C28.0385 8.17248 28.0828 8.16394 28.1242 8.14704C28.1656 8.13014 28.2033 8.10522 28.235 8.07371C28.2668 8.0422 28.2919 8.00472 28.3091 7.96344C28.3773 7.78162 28.2955 7.58162 28.1228 7.51344ZM26.9 4.92708C26.9172 4.96836 26.9424 5.00584 26.9742 5.03734C27.0059 5.06885 27.0435 5.09378 27.0849 5.11068C27.1263 5.12757 27.1707 5.13612 27.2154 5.13581C27.2601 5.13551 27.3043 5.12636 27.3455 5.1089L28.1228 4.78617C28.2955 4.71344 28.3773 4.51344 28.3091 4.34071C28.2728 4.25879 28.2058 4.19436 28.1226 4.16123C28.0393 4.12809 27.9464 4.12888 27.8637 4.16344L27.0864 4.48617C26.9137 4.55435 26.8319 4.75435 26.9 4.92708ZM25.1773 3.19526C25.2185 3.21272 25.2627 3.22187 25.3074 3.22218C25.3521 3.22248 25.3965 3.21394 25.4379 3.19704C25.4793 3.18014 25.5169 3.15522 25.5487 3.12371C25.5804 3.0922 25.6056 3.05472 25.6228 3.01344L25.9455 2.23617C25.9628 2.19472 25.9718 2.15024 25.9718 2.10531C25.9718 2.06039 25.9628 2.01591 25.9455 1.97446C25.9281 1.93302 25.9027 1.89543 25.8708 1.86389C25.8388 1.83234 25.8008 1.80747 25.7591 1.79071C25.7177 1.77338 25.6732 1.76445 25.6283 1.76446C25.5834 1.76446 25.5389 1.77339 25.4974 1.79073C25.456 1.80807 25.4184 1.83347 25.3869 1.86546C25.3553 1.89745 25.3304 1.93539 25.3137 1.97708L24.991 2.75435C24.9182 2.92708 25 3.12708 25.1773 3.19526ZM21.2091 3.88617C21.2773 3.9498 21.3637 3.98617 21.4546 3.98617C21.5455 3.98617 21.6273 3.95435 21.6955 3.88617C21.8273 3.75435 21.8273 3.53617 21.6955 3.40435L20.6546 2.36344C20.5228 2.23162 20.3046 2.23162 20.1728 2.36344C20.041 2.49526 20.041 2.71344 20.1728 2.84526L21.2091 3.88617ZM18.941 6.48162H20.4137C20.6 6.48162 20.7546 6.32708 20.7546 6.14071C20.7546 5.95435 20.6 5.7998 20.4137 5.7998H18.941C18.7546 5.7998 18.6 5.95435 18.6 6.14071C18.6 6.32708 18.7546 6.48162 18.941 6.48162ZM20.4046 10.0271C20.491 10.0271 20.5773 9.99526 20.6455 9.92708L21.6864 8.88617C21.8182 8.75435 21.8182 8.53617 21.6864 8.40435C21.5546 8.27253 21.3364 8.27253 21.2046 8.40435L20.1637 9.44526C20.0319 9.57708 20.0319 9.79526 20.1637 9.92708C20.2319 9.99071 20.3182 10.0271 20.4046 10.0271ZM23.6046 9.68162V11.1544C23.6046 11.3407 23.7591 11.4953 23.9455 11.4953C24.1319 11.4953 24.2864 11.3407 24.2864 11.1544V9.68162C24.2864 9.49526 24.1319 9.34071 23.9455 9.34071C23.7591 9.34071 23.6046 9.49526 23.6046 9.68162ZM27.2455 9.93162C27.3137 9.99981 27.4 10.0316 27.4864 10.0316C27.5728 10.0316 27.6591 9.99981 27.7273 9.93162C27.8591 9.7998 27.8591 9.58162 27.7273 9.44981L26.6864 8.4089C26.5546 8.27708 26.3364 8.27708 26.2046 8.4089C26.0728 8.54071 26.0728 8.7589 26.2046 8.89071L27.2455 9.93162ZM28.9546 5.8089H27.4819C27.2955 5.8089 27.141 5.96344 27.141 6.1498C27.141 6.33617 27.2955 6.49071 27.4819 6.49071H28.9546C29.045 6.49071 29.1317 6.4548 29.1957 6.39086C29.2596 6.32693 29.2955 6.24022 29.2955 6.1498C29.2955 6.05939 29.2596 5.97268 29.1957 5.90875C29.1317 5.84481 29.045 5.8089 28.9546 5.8089ZM26.4546 3.99071C26.541 3.99071 26.6273 3.9589 26.6955 3.89071L27.7364 2.8498C27.8682 2.71799 27.8682 2.4998 27.7364 2.36799C27.6046 2.23617 27.3864 2.23617 27.2546 2.36799L26.2091 3.4089C26.0773 3.54071 26.0773 3.7589 26.2091 3.89071C26.2773 3.9589 26.3637 3.99071 26.4546 3.99071ZM19.7637 15.2634H23.741L14.1682 5.69071C13.641 5.16344 12.7091 5.16344 12.1819 5.69071L1.28186 16.5907C0.731863 17.1362 0.731863 18.0271 1.28186 18.5771C1.83186 19.1271 2.72277 19.1271 3.27277 18.5771L13.1728 8.67253L19.7637 15.2634ZM2.97277 8.61344H4.08641V12.4998L4.9955 11.5907V8.61344H6.10914C7.36368 8.61344 8.37732 7.59526 8.37732 6.34526V4.77708H6.80914C5.73641 4.77708 4.84095 5.52253 4.60459 6.52253C4.58186 6.51799 4.56368 6.5089 4.53641 6.5089C4.51368 6.5089 4.49095 6.51799 4.46823 6.52253C4.35086 6.02592 4.06937 5.58344 3.66929 5.26668C3.26922 4.94992 2.77397 4.77742 2.26368 4.77708H0.70459V6.34526C0.70459 7.59526 1.71823 8.61344 2.97277 8.61344ZM20.7319 27.6907H23.5682V29.1998H20.7319V27.6907Z" fill="white"/>
<path d="M14.9227 27.1453C14.6227 26.7953 14.4909 26.3363 14.5546 25.8817L15.9 16.6135C16.0091 15.8453 16.6818 15.2635 17.4636 15.2635H18.4818L13.1727 9.95898L4.03638 19.0953V29.1999H6.96365V20.5317H13.5227V29.1999H19.8182V27.6908H16.1182C15.6591 27.6908 15.2227 27.4908 14.9227 27.1453ZM13.1727 16.9772C12.9121 16.9772 12.654 16.9258 12.4133 16.8259C12.1725 16.726 11.9539 16.5796 11.7698 16.3951C11.5857 16.2106 11.4398 15.9916 11.3405 15.7506C11.2411 15.5096 11.1903 15.2514 11.1909 14.9908C11.1909 13.8953 12.0773 13.009 13.1727 13.009C13.4334 13.0084 13.6916 13.0592 13.9325 13.1585C14.1735 13.2579 14.3925 13.4037 14.577 13.5878C14.7615 13.7719 14.9079 13.9906 15.0078 14.2313C15.1077 14.4721 15.1591 14.7302 15.1591 14.9908C15.1591 16.0908 14.2727 16.9772 13.1727 16.9772ZM19.5136 21.9317H21.6955V23.7499H19.5136V21.9317ZM19.5136 16.1726H21.6955V18.2953H19.5136V16.1726Z" fill="white"/>
<path d="M18.6047 21.9319H16.0501L15.7865 23.7501H18.6047V21.9319ZM19.5138 19.2047H21.6956V21.0229H19.5138V19.2047ZM19.5138 24.6592H21.6956V26.7819H19.5138V24.6592ZM18.6047 19.2047H16.4456L16.182 21.0229H18.6047V19.2047ZM22.6047 19.2047H24.791V21.0229H22.6047V19.2047ZM22.6047 21.9319H24.791V23.7501H22.6047V21.9319ZM22.6047 24.6592H24.791V26.7819H22.6047V24.6592ZM15.4547 26.0138C15.3956 26.4183 15.7092 26.7819 16.1183 26.7819H18.6001V24.6592H15.6501L15.4547 26.0138ZM28.641 24.6592H25.6956V26.7819H28.1729C28.582 26.7819 28.8956 26.4183 28.8365 26.0138L28.641 24.6592ZM25.7001 18.2956H27.7229L27.5001 16.7456C27.4501 16.4138 27.1683 16.1729 26.8365 16.1729H25.7001V18.2956ZM18.6047 16.1729H17.4638C17.132 16.1729 16.8501 16.4183 16.8001 16.7456L16.5774 18.2956H18.6047V16.1729ZM22.6047 16.1729H24.791V18.2956H22.6047V16.1729ZM25.7001 21.0229H28.1138L27.8547 19.2047H25.7001V21.0229ZM25.7001 23.7501H28.5092L28.2456 21.9319H25.7001V23.7501Z" fill="white"/>
</g>
<defs>
<clipPath id="clip0_543_2218">
<rect width="30" height="30" fill="white"/>
</clipPath>
</defs>
</svg>
