<svg width="30" height="30" viewBox="0 0 30 30" fill="none" xmlns="http://www.w3.org/2000/svg">
<g clip-path="url(#clip0_543_2187)">
<path d="M29.9573 20.005L26.5768 9.44824C26.52 9.27092 26.4083 9.11622 26.2579 9.00646C26.1075 8.8967 25.9262 8.83757 25.74 8.83758H20.302C20.3003 8.58944 20.2813 8.34173 20.245 8.09625L22.699 7.29902C23.1607 7.14914 23.4134 6.65332 23.2635 6.19172C23.1135 5.73012 22.6178 5.47734 22.1562 5.62729L19.7005 6.42516C19.458 5.96245 19.1489 5.53791 18.7829 5.16516L20.3809 2.96514C20.6661 2.57238 20.5789 2.02283 20.1862 1.73742C19.7934 1.45225 19.2439 1.53943 18.9586 1.93225L17.362 4.13039C16.8943 3.89655 16.3945 3.73378 15.8788 3.64746V0.9375C15.8788 0.452051 15.4854 0.0585938 14.9999 0.0585938C14.5147 0.0585938 14.121 0.452051 14.121 0.9375V3.64723C13.6054 3.73368 13.1055 3.89644 12.6378 4.13016L11.0414 1.93201C10.7562 1.53926 10.2064 1.45225 9.81367 1.73748C9.42092 2.02266 9.33396 2.57215 9.61914 2.96496L11.217 5.16492C10.8511 5.53772 10.5419 5.96225 10.2994 6.42492L7.84316 5.62734C7.3815 5.4774 6.88574 5.73012 6.73586 6.19178C6.58592 6.65344 6.83863 7.1492 7.30029 7.29908L9.75478 8.09631C9.71863 8.34172 9.6996 8.58935 9.69783 8.8374H4.25986C4.07363 8.83746 3.89223 8.89666 3.7418 9.00645C3.59137 9.11624 3.47969 9.27096 3.42285 9.4483L0.0425185 20.005C-0.139474 20.573 0.2858 21.1519 0.879237 21.1519H1.81674V29.0613C1.81674 29.5468 2.21025 29.9402 2.69564 29.9402H27.3041C27.7894 29.9402 28.183 29.5468 28.183 29.0613V21.1519H29.1205C29.7147 21.1519 30.1391 20.5726 29.9573 20.005ZM22.8096 19.3943L22.5329 17.667H27.363L27.9162 19.3943H22.8096ZM8.97051 19.3943L9.24695 17.667H14.121V19.3943H8.97051ZM2.08369 19.3943L2.63682 17.667H7.46699L7.19025 19.3943H2.08369ZM3.76891 14.1314H8.03301L7.74824 15.9091H3.19973L3.76891 14.1314ZM14.121 10.5952V12.3738H10.0945L10.3793 10.5952H14.121ZM19.6206 10.5952L19.9053 12.3738H15.8788V10.5952H19.6206ZM26.8001 15.9091H22.2516L21.9668 14.1314H26.2309L26.8001 15.9091ZM20.4713 15.9091H15.8788V14.1314H20.1866L20.4713 15.9091ZM14.121 14.1314V15.9091H9.52849L9.81303 14.1314H14.121ZM15.8788 17.667H20.7529L21.0293 19.3943H15.8788V17.667ZM25.6681 12.3736H21.6854L21.4006 10.5952H25.0984L25.6681 12.3736ZM14.9999 5.3318C16.9413 5.3318 18.5226 6.901 18.5437 8.83758H11.4562C11.4772 6.90076 13.0583 5.3318 14.9999 5.3318ZM8.59926 10.5952L8.31426 12.3738H4.33176L4.90141 10.5952H8.59926ZM17.6364 28.1824H12.3632V26.1316C12.3632 25.3242 13.0203 24.667 13.828 24.667H16.1718C16.9795 24.667 17.6364 25.3242 17.6364 26.1316V28.1824ZM26.4252 28.1824H19.3942V26.1316C19.3942 24.3548 17.9486 22.9092 16.1718 22.9092H13.828C12.0512 22.9092 10.6056 24.3548 10.6056 26.1316V28.1824H3.57461V21.1519H26.4252V28.1824Z" fill="white"/>
</g>
<defs>
<clipPath id="clip0_543_2187">
<rect width="30" height="30" fill="white"/>
</clipPath>
</defs>
</svg>
