<svg width="30" height="30" viewBox="0 0 30 30" fill="none" xmlns="http://www.w3.org/2000/svg">
<path d="M28.9286 3.21429H27.8571V1.07143C27.8571 0.787268 27.7443 0.514746 27.5433 0.313814C27.3424 0.112882 27.0699 0 26.7857 0H23.5714C23.2873 0 23.0147 0.112882 22.8138 0.313814C22.6129 0.514746 22.5 0.787268 22.5 1.07143V3.21429H7.5V1.07143C7.5 0.787268 7.38712 0.514746 7.18619 0.313814C6.98525 0.112882 6.71273 0 6.42857 0H3.21429C2.93012 0 2.6576 0.112882 2.45667 0.313814C2.25574 0.514746 2.14286 0.787268 2.14286 1.07143V3.21429H1.07143C0.787268 3.21429 0.514746 3.32717 0.313814 3.5281C0.112882 3.72903 0 4.00155 0 4.28571V9.64286C0 9.92702 0.112882 10.1995 0.313814 10.4005C0.514746 10.6014 0.787268 10.7143 1.07143 10.7143V28.9286C1.07143 29.2127 1.18431 29.4853 1.38524 29.6862C1.58617 29.8871 1.8587 30 2.14286 30H27.8571C28.1413 30 28.4138 29.8871 28.6148 29.6862C28.8157 29.4853 28.9286 29.2127 28.9286 28.9286V10.7143C29.2127 10.7143 29.4853 10.6014 29.6862 10.4005C29.8871 10.1995 30 9.92702 30 9.64286V4.28571C30 4.00155 29.8871 3.72903 29.6862 3.5281C29.4853 3.32717 29.2127 3.21429 28.9286 3.21429ZM24.6429 2.14286H25.7143V3.21429H24.6429V2.14286ZM4.28571 2.14286H5.35714V3.21429H4.28571V2.14286ZM2.14286 5.35714H7.5V6.42857C7.5 6.71273 7.61288 6.98525 7.81381 7.18619C8.01475 7.38712 8.28727 7.5 8.57143 7.5C8.85559 7.5 9.12811 7.38712 9.32904 7.18619C9.52997 6.98525 9.64286 6.71273 9.64286 6.42857V5.35714H10.7143V6.42857C10.7143 6.71273 10.8272 6.98525 11.0281 7.18619C11.229 7.38712 11.5016 7.5 11.7857 7.5C12.0699 7.5 12.3424 7.38712 12.5433 7.18619C12.7443 6.98525 12.8571 6.71273 12.8571 6.42857V5.35714H13.9286V6.42857C13.9286 6.71273 14.0415 6.98525 14.2424 7.18619C14.4433 7.38712 14.7158 7.5 15 7.5C15.2842 7.5 15.5567 7.38712 15.7576 7.18619C15.9585 6.98525 16.0714 6.71273 16.0714 6.42857V5.35714H17.1429V6.42857C17.1429 6.71273 17.2557 6.98525 17.4567 7.18619C17.6576 7.38712 17.9301 7.5 18.2143 7.5C18.4984 7.5 18.771 7.38712 18.9719 7.18619C19.1728 6.98525 19.2857 6.71273 19.2857 6.42857V5.35714H20.3571V6.42857C20.3571 6.71273 20.47 6.98525 20.671 7.18619C20.8719 7.38712 21.1444 7.5 21.4286 7.5C21.7127 7.5 21.9853 7.38712 22.1862 7.18619C22.3871 6.98525 22.5 6.71273 22.5 6.42857V5.35714H27.8571V8.57143H2.14286V5.35714ZM26.7857 27.8571H3.21429V10.7143H26.7857V27.8571Z" fill="white"/>
<path d="M5.35707 16.0718H6.4285V17.1433C6.4285 17.4274 6.54138 17.7 6.74232 17.9009C6.94325 18.1018 7.21577 18.2147 7.49993 18.2147C7.78409 18.2147 8.05661 18.1018 8.25754 17.9009C8.45848 17.7 8.57136 17.4274 8.57136 17.1433V16.0718H9.64279C9.92695 16.0718 10.1995 15.959 10.4004 15.758C10.6013 15.5571 10.7142 15.2846 10.7142 15.0004C10.7142 14.7163 10.6013 14.4437 10.4004 14.2428C10.1995 14.0419 9.92695 13.929 9.64279 13.929H8.57136V12.8576C8.57136 12.5734 8.45848 12.3009 8.25754 12.0999C8.05661 11.899 7.78409 11.7861 7.49993 11.7861C7.21577 11.7861 6.94325 11.899 6.74232 12.0999C6.54138 12.3009 6.4285 12.5734 6.4285 12.8576V13.929H5.35707C5.07291 13.929 4.80039 14.0419 4.59946 14.2428C4.39853 14.4437 4.28564 14.7163 4.28564 15.0004C4.28564 15.2846 4.39853 15.5571 4.59946 15.758C4.80039 15.959 5.07291 16.0718 5.35707 16.0718ZM21.4285 16.0718H24.6428C24.9269 16.0718 25.1995 15.959 25.4004 15.758C25.6013 15.5571 25.7142 15.2846 25.7142 15.0004C25.7142 14.7163 25.6013 14.4437 25.4004 14.2428C25.1995 14.0419 24.9269 13.929 24.6428 13.929H21.4285C21.1443 13.929 20.8718 14.0419 20.6709 14.2428C20.47 14.4437 20.3571 14.7163 20.3571 15.0004C20.3571 15.2846 20.47 15.5571 20.6709 15.758C20.8718 15.959 21.1443 16.0718 21.4285 16.0718ZM9.8035 19.8486C9.89936 20.004 10.0333 20.1324 10.1927 20.2214C10.3521 20.3105 10.5316 20.3574 10.7142 20.3576H12.4424L10.7689 25.3761C10.6911 25.6108 10.6969 25.8651 10.7852 26.096C10.8735 26.3269 11.039 26.5201 11.2535 26.643C11.468 26.7658 11.7184 26.8107 11.9623 26.77C12.2061 26.7293 12.4283 26.6055 12.5914 26.4197L20.0914 17.8483C20.2267 17.6934 20.3146 17.5028 20.3446 17.2993C20.3745 17.0958 20.3453 16.888 20.2603 16.7007C20.1753 16.5134 20.0383 16.3545 19.8654 16.243C19.6926 16.1315 19.4913 16.0721 19.2856 16.0718H17.8049L19.1731 13.3365C19.2548 13.1731 19.2933 12.9916 19.285 12.8091C19.2768 12.6266 19.222 12.4493 19.1259 12.294C19.0298 12.1386 18.8956 12.0104 18.7361 11.9215C18.5765 11.8327 18.3969 11.786 18.2142 11.7861H13.9285C13.7294 11.786 13.5342 11.8414 13.3648 11.9461C13.1954 12.0507 13.0586 12.2005 12.9696 12.3786L9.75529 18.8072C9.67383 18.9704 9.63541 19.1518 9.64366 19.334C9.65191 19.5163 9.70763 19.6934 9.8035 19.8486ZM14.5896 13.929H16.4796L15.1114 16.6643C15.0297 16.8278 14.9912 17.0095 14.9995 17.192C15.0078 17.3746 15.0626 17.552 15.1589 17.7073C15.2551 17.8627 15.3894 17.9909 15.5491 18.0797C15.7088 18.1685 15.8886 18.215 16.0714 18.2147H16.9242L14.4867 21.0004L14.9453 19.6247C14.9987 19.4636 15.0131 19.2922 14.9874 19.1245C14.9616 18.9567 14.8964 18.7975 14.7972 18.6599C14.6979 18.5223 14.5674 18.4101 14.4164 18.3327C14.2654 18.2554 14.0982 18.2149 13.9285 18.2147H12.4478L14.5896 13.929Z" fill="white"/>
</svg>
